<svg xmlns="http://www.w3.org/2000/svg" viewBox="0 0 750 500"><g id="freepik--background-simple--inject-32"><path d="M581.79,74.53S484.66,44.06,410.11,58.69,108.19,218.47,91.71,228.58s-50.19,31.89-43.8,108.69,62.45,96.28,107.88,97.79,374.87,14.63,444.66,1.78S713.29,300.68,713.63,244.36,659.9,97.5,581.79,74.53Z" style="fill:#821AC2"></path><path d="M581.79,74.53S484.66,44.06,410.11,58.69,108.19,218.47,91.71,228.58s-50.19,31.89-43.8,108.69,62.45,96.28,107.88,97.79,374.87,14.63,444.66,1.78S713.29,300.68,713.63,244.36,659.9,97.5,581.79,74.53Z" style="fill:#fff;opacity:0.7000000000000001"></path></g><g id="freepik--Floor--inject-32"><path d="M724.37,396.05H28.5a.5.5,0,0,1,0-1H724.37a.5.5,0,0,1,0,1Z" style="fill:#263238"></path></g><g id="freepik--Clouds--inject-32"><path d="M193,185.06H127.33a.5.5,0,1,1,0-1h65.23c.21-1.14.59-4.6-2.12-6.29a4.41,4.41,0,0,0-4.17-.57,8.19,8.19,0,0,1-4.24.18.5.5,0,0,1-.31-.22c-.11-.16-10.77-16.41-18.93-15.56a11.91,11.91,0,0,0-3.32.78.5.5,0,0,1-.65-.28.49.49,0,0,1,.27-.65,13.5,13.5,0,0,1,3.6-.85c8.4-.88,18.5,14,19.75,15.84a7.2,7.2,0,0,0,3.59-.21,5.36,5.36,0,0,1,4.94.69c3.88,2.42,2.54,7.55,2.48,7.77A.5.5,0,0,1,193,185.06Z" style="fill:#263238"></path><path d="M122.87,185.06H104.54a.5.5,0,0,1-.39-.81L106,182c1.26-1.58,3.22-1,4.8-.47a4.23,4.23,0,0,0,2.58.34,7.05,7.05,0,0,0,2.13-2.63,15.48,15.48,0,0,1,3.19-4.08c1.68-1.4,4.41.06,7.3,1.61,2.27,1.22,4.62,2.48,5.9,1.93a3.74,3.74,0,0,0,2-2.31,6.58,6.58,0,0,1,4.32-4c2.38-.87,4.73.17,6.79,1.08,2.88,1.26,4.58,1.87,6-.43a25.84,25.84,0,0,0,2-4.11,22.09,22.09,0,0,1,2.08-4.22.5.5,0,1,1,.83.57,21.3,21.3,0,0,0-2,4,26.1,26.1,0,0,1-2.06,4.27c-2,3.13-4.68,1.95-7.28.8-2-.87-4-1.78-6-1a5.59,5.59,0,0,0-3.75,3.49,4.67,4.67,0,0,1-2.54,2.81c-1.73.74-4.18-.57-6.77-2s-5-2.69-6.19-1.72a14.55,14.55,0,0,0-3,3.83,7.54,7.54,0,0,1-2.54,3c-.94.47-2.1.11-3.33-.28-1.74-.54-2.94-.83-3.72.15l-1.16,1.44h17.29a.5.5,0,0,1,0,1Z" style="fill:#263238"></path><path d="M640.31,212.29H588a.52.52,0,0,1-.46-.28.51.51,0,0,1,.06-.53l1.81-2.26c1.26-1.57,3.23-1,4.8-.47,1,.32,2,.63,2.58.34a7,7,0,0,0,2.13-2.63,15.28,15.28,0,0,1,3.19-4.07c1.68-1.41,4.41.06,7.3,1.6,2.28,1.22,4.63,2.48,5.91,1.93a3.7,3.7,0,0,0,2-2.31,6.61,6.61,0,0,1,4.32-4,7.49,7.49,0,0,1,5.27.43.51.51,0,0,1,.28.65.5.5,0,0,1-.65.28,6.41,6.41,0,0,0-4.56-.42,5.58,5.58,0,0,0-3.75,3.5,4.66,4.66,0,0,1-2.54,2.81c-1.72.73-4.17-.58-6.77-2s-5-2.7-6.19-1.73a14.89,14.89,0,0,0-3,3.83c-.82,1.34-1.52,2.5-2.54,3s-2.1.11-3.32-.27c-1.75-.55-2.95-.83-3.73.14l-1.15,1.44h51.26a.5.5,0,0,1,.5.5A.5.5,0,0,1,640.31,212.29Z" style="fill:#263238"></path><path d="M633.21,202.58a.5.5,0,0,1-.19-1,3.26,3.26,0,0,0,1.48-1.36,26.27,26.27,0,0,0,2-4.11c1.53-3.74,3.12-7.61,9.67-8.3,2.79-.3,6.05,1.12,9.69,4.2a.5.5,0,0,1,.06.7.5.5,0,0,1-.71.06c-3.42-2.9-6.44-4.23-8.94-4-6,.63-7.29,3.9-8.85,7.69a26,26,0,0,1-2.06,4.26,4.12,4.12,0,0,1-2,1.76A.58.58,0,0,1,633.21,202.58Z" style="fill:#263238"></path><path d="M676.43,212.29H645.32a.5.5,0,0,1-.5-.5.5.5,0,0,1,.5-.5H676c.21-1.13.59-4.6-2.11-6.29a4.4,4.4,0,0,0-4.17-.56,8.24,8.24,0,0,1-4.25.17.5.5,0,0,1-.31-.22,67.37,67.37,0,0,0-6.55-8.28.51.51,0,0,1,0-.71.49.49,0,0,1,.7,0,68.42,68.42,0,0,1,6.54,8.26,7.43,7.43,0,0,0,3.59-.21,5.35,5.35,0,0,1,5,.68c3.88,2.42,2.53,7.56,2.47,7.77A.5.5,0,0,1,676.43,212.29Z" style="fill:#263238"></path><path d="M326,156.7H230a.5.5,0,0,1-.45-.28.51.51,0,0,1,.06-.53l3.25-4.06c2.1-2.63,5.35-1.61,8.22-.72,1.93.61,3.76,1.18,4.94.59,1.48-.74,2.65-2.66,4-4.89a27.67,27.67,0,0,1,5.66-7.24c2.81-2.34,7.61.23,12.7,3,4.18,2.23,8.49,4.54,11,3.48,2.32-1,3-2.56,3.85-4.36,1.09-2.41,2.34-5.13,7.54-7a10.94,10.94,0,0,1,7,0,.5.5,0,1,1-.27,1,9.94,9.94,0,0,0-6.34,0c-4.82,1.75-5.92,4.17-7,6.5-.87,1.91-1.69,3.72-4.37,4.87-2.92,1.25-7.26-1.07-11.84-3.52s-9.3-5-11.59-3.06a26.9,26.9,0,0,0-5.44,7c-1.44,2.36-2.68,4.4-4.41,5.26-1.54.77-3.55.14-5.69-.52-2.69-.84-5.46-1.71-7.14.39L231,155.7H326a.5.5,0,0,1,.5.5A.5.5,0,0,1,326,156.7Z" style="fill:#263238"></path><path d="M389.22,156.7h-57.7a.5.5,0,0,1-.5-.5.5.5,0,0,1,.5-.5h57.3c.35-1.68,1.44-8.71-3.93-12.07-3.47-2.17-5.39-1.68-7.82-1.06a14.44,14.44,0,0,1-7.46.31.49.49,0,0,1-.31-.21c-.19-.3-19.52-29.79-34.46-28.21-11,1.16-13.42,7.15-16.26,14.09a46.22,46.22,0,0,1-3.68,7.61c-3.4,5.35-8,3.32-12.49,1.35a.5.5,0,0,1-.26-.66.5.5,0,0,1,.66-.26c4.46,2,8.31,3.66,11.25-1a47.3,47.3,0,0,0,3.6-7.46c2.84-6.94,5.52-13.49,17.08-14.7,15.11-1.6,33.51,25.78,35.29,28.48a13.39,13.39,0,0,0,6.79-.35c2.45-.62,4.77-1.21,8.6,1.18,6.73,4.21,4.3,13.46,4.28,13.56A.5.5,0,0,1,389.22,156.7Z" style="fill:#263238"></path></g><g id="freepik--Trees--inject-32"><path d="M125.11,321.46c10.65,54-22.8,31.5-50.93,31.5s-63.77,18.31-50.93-31.5c7.33-28.46,22.8-46.25,50.93-46.25S120.62,298.69,125.11,321.46Z" style="fill:#821AC2"></path><path d="M125.11,321.46c10.65,54-22.8,31.5-50.93,31.5s-63.77,18.31-50.93-31.5c7.33-28.46,22.8-46.25,50.93-46.25S120.62,298.69,125.11,321.46Z" style="fill:#fff;opacity:0.30000000000000004"></path><polygon points="58.12 348.06 71.84 358.53 70.44 395.55 78.72 395.55 77.13 341.36 96.75 319.78 76.9 336.75 76.17 304.62 74.01 326.64 68.9 322.94 57.76 307.15 64.92 321.5 41.88 312.2 65.36 325.47 73.09 330.83 72.2 354.2 58.12 348.06" style="fill:#a1a1a1"></polygon><path d="M65.86,295.61a10.42,10.42,0,0,0,.81,6.37,19.81,19.81,0,0,0,3.7,4.8S71.92,301.29,65.86,295.61Z" style="fill:#fff"></path><path d="M36.7,326.34a10.45,10.45,0,0,0,6,2.36,19.8,19.8,0,0,0,6-.91S44.6,323.78,36.7,326.34Z" style="fill:#fff"></path><path d="M32.62,340.75a10.36,10.36,0,0,0,6.4.49,19.94,19.94,0,0,0,5.45-2.65S39.4,336,32.62,340.75Z" style="fill:#fff"></path><path d="M52.06,342.25a10.34,10.34,0,0,0,6-2.21,19.75,19.75,0,0,0,3.86-4.68S56.24,335.08,52.06,342.25Z" style="fill:#fff"></path><path d="M43.86,299.21a10.45,10.45,0,0,0,3.45,5.41,19.74,19.74,0,0,0,5.39,2.76S51.76,301.75,43.86,299.21Z" style="fill:#fff"></path><path d="M101.87,296.64a10.41,10.41,0,0,0-5.69,3A20,20,0,0,0,93,304.73S98.64,304.29,101.87,296.64Z" style="fill:#fff"></path><path d="M114.08,315a10.38,10.38,0,0,0-6.36.81,20.09,20.09,0,0,0-4.8,3.7S108.41,321,114.08,315Z" style="fill:#fff"></path><path d="M112.89,335.75a10.37,10.37,0,0,0-5.78-2.79,19.76,19.76,0,0,0-6,.49S104.83,337.74,112.89,335.75Z" style="fill:#fff"></path><path d="M99.26,346.91a10.37,10.37,0,0,0-4.4-4.67,19.87,19.87,0,0,0-5.82-1.7S91,345.89,99.26,346.91Z" style="fill:#fff"></path><path d="M92.09,313.16a10.41,10.41,0,0,0-5.69,3,19.88,19.88,0,0,0-3.23,5.13S88.86,320.81,92.09,313.16Z" style="fill:#fff"></path><path d="M34.36,308.57A10.36,10.36,0,0,0,39,313.06a19.68,19.68,0,0,0,5.87,1.48S42.63,309.27,34.36,308.57Z" style="fill:#fff"></path><path d="M84.6,291.74A10.35,10.35,0,0,0,81,297.07a19.72,19.72,0,0,0-.37,6S85.44,300,84.6,291.74Z" style="fill:#fff"></path><path d="M73.85,281.67A10.43,10.43,0,0,0,73,288a19.83,19.83,0,0,0,2.34,5.59S78.24,288.71,73.85,281.67Z" style="fill:#fff"></path><path d="M50.56,285.05a10.4,10.4,0,0,0,2.13,6.05A20,20,0,0,0,57.32,295S57.68,289.32,50.56,285.05Z" style="fill:#fff"></path><path d="M732.62,338.17c8.24,41.81-17.66,24.4-39.44,24.4s-49.39,14.17-39.45-24.4c5.68-22,17.66-35.82,39.45-35.82S729.14,320.54,732.62,338.17Z" style="fill:#821AC2"></path><path d="M732.62,338.17c8.24,41.81-17.66,24.4-39.44,24.4s-49.39,14.17-39.45-24.4c5.68-22,17.66-35.82,39.45-35.82S729.14,320.54,732.62,338.17Z" style="fill:#fff;opacity:0.30000000000000004"></path><polygon points="680.74 358.77 691.37 366.88 690.28 395.55 696.7 395.55 695.46 353.58 710.66 336.87 695.28 350.01 694.72 325.13 693.04 342.18 689.09 339.32 680.46 327.09 686.01 338.2 668.16 331 686.35 341.28 692.34 345.43 691.65 363.52 680.74 358.77" style="fill:#a1a1a1"></polygon><path d="M686.74,318.15a8,8,0,0,0,.62,4.93,15.26,15.26,0,0,0,2.86,3.72S691.43,322.55,686.74,318.15Z" style="fill:#fff"></path><path d="M664.15,342a8.05,8.05,0,0,0,4.62,1.83,15.37,15.37,0,0,0,4.64-.71S670.27,340,664.15,342Z" style="fill:#fff"></path><path d="M661,353.11a8.06,8.06,0,0,0,5,.38,15.13,15.13,0,0,0,4.22-2.05S666.24,349.4,661,353.11Z" style="fill:#fff"></path><path d="M676.05,354.27a8,8,0,0,0,4.66-1.71,15.21,15.21,0,0,0,3-3.62S679.28,348.72,676.05,354.27Z" style="fill:#fff"></path><path d="M669.7,320.94a8,8,0,0,0,2.67,4.19,15.49,15.49,0,0,0,4.18,2.14S675.81,322.91,669.7,320.94Z" style="fill:#fff"></path><path d="M714.62,319a8.08,8.08,0,0,0-4.4,2.29,15.3,15.3,0,0,0-2.5,4S712.12,324.87,714.62,319Z" style="fill:#fff"></path><path d="M724.08,333.13a8.05,8.05,0,0,0-4.93.63,15.4,15.4,0,0,0-3.72,2.87S719.69,337.82,724.08,333.13Z" style="fill:#fff"></path><path d="M723.16,349.24a8.05,8.05,0,0,0-4.48-2.16,15.57,15.57,0,0,0-4.68.37S716.91,350.78,723.16,349.24Z" style="fill:#fff"></path><path d="M712.6,357.88a8,8,0,0,0-3.41-3.61,15.44,15.44,0,0,0-4.5-1.32S706.22,357.09,712.6,357.88Z" style="fill:#fff"></path><path d="M707.05,331.74a8.07,8.07,0,0,0-4.41,2.3,15.34,15.34,0,0,0-2.5,4S704.55,337.66,707.05,331.74Z" style="fill:#fff"></path><path d="M662.34,328.19a8.12,8.12,0,0,0,3.55,3.48,15.36,15.36,0,0,0,4.55,1.14S668.75,328.73,662.34,328.19Z" style="fill:#fff"></path><path d="M701.25,315.15a8.07,8.07,0,0,0-2.77,4.13,15.44,15.44,0,0,0-.28,4.68S701.9,321.55,701.25,315.15Z" style="fill:#fff"></path><path d="M692.92,307.36a8,8,0,0,0-.66,4.92,15.2,15.2,0,0,0,1.81,4.33S696.32,312.81,692.92,307.36Z" style="fill:#fff"></path><path d="M674.88,310a8,8,0,0,0,1.66,4.68,15.22,15.22,0,0,0,3.58,3S680.4,313.28,674.88,310Z" style="fill:#fff"></path><path d="M321.83,321.46c10.65,54-22.8,31.5-50.93,31.5s-63.77,18.31-50.93-31.5c7.34-28.46,22.8-46.25,50.93-46.25S317.34,298.69,321.83,321.46Z" style="fill:#821AC2"></path><path d="M321.83,321.46c10.65,54-22.8,31.5-50.93,31.5s-63.77,18.31-50.93-31.5c7.34-28.46,22.8-46.25,50.93-46.25S317.34,298.69,321.83,321.46Z" style="fill:#fff;opacity:0.30000000000000004"></path><polygon points="254.85 348.06 268.56 358.53 267.16 395.55 275.45 395.55 273.86 341.36 293.47 319.78 273.62 336.75 272.9 304.62 270.73 326.64 265.63 322.94 254.49 307.15 261.65 321.5 238.6 312.2 262.09 325.47 269.82 330.83 268.93 354.2 254.85 348.06" style="fill:#a1a1a1"></polygon><path d="M262.59,295.61a10.33,10.33,0,0,0,.81,6.37,19.92,19.92,0,0,0,3.69,4.8S268.64,301.29,262.59,295.61Z" style="fill:#fff"></path><path d="M233.43,326.34a10.41,10.41,0,0,0,6,2.36,19.8,19.8,0,0,0,6-.91S241.32,323.78,233.43,326.34Z" style="fill:#fff"></path><path d="M229.34,340.75a10.38,10.38,0,0,0,6.4.49,19.94,19.94,0,0,0,5.45-2.65S236.12,336,229.34,340.75Z" style="fill:#fff"></path><path d="M248.79,342.25a10.36,10.36,0,0,0,6-2.21,19.85,19.85,0,0,0,3.85-4.68S253,335.08,248.79,342.25Z" style="fill:#fff"></path><path d="M240.58,299.21a10.45,10.45,0,0,0,3.45,5.41,19.87,19.87,0,0,0,5.4,2.76S248.48,301.75,240.58,299.21Z" style="fill:#fff"></path><path d="M298.6,296.64a10.38,10.38,0,0,0-5.69,3,19.88,19.88,0,0,0-3.23,5.13S295.37,304.29,298.6,296.64Z" style="fill:#fff"></path><path d="M310.81,315a10.42,10.42,0,0,0-6.37.81,20.09,20.09,0,0,0-4.8,3.7S305.13,321,310.81,315Z" style="fill:#fff"></path><path d="M309.61,335.75a10.37,10.37,0,0,0-5.78-2.79,19.76,19.76,0,0,0-6,.49S301.55,337.74,309.61,335.75Z" style="fill:#fff"></path><path d="M296,346.91a10.42,10.42,0,0,0-4.41-4.67,19.79,19.79,0,0,0-5.82-1.7S287.75,345.89,296,346.91Z" style="fill:#fff"></path><path d="M288.82,313.16a10.42,10.42,0,0,0-5.7,3,20,20,0,0,0-3.22,5.13S285.59,320.81,288.82,313.16Z" style="fill:#fff"></path><path d="M231.09,308.57a10.31,10.31,0,0,0,4.58,4.49,19.7,19.7,0,0,0,5.88,1.48S239.36,309.27,231.09,308.57Z" style="fill:#fff"></path><path d="M281.33,291.74a10.35,10.35,0,0,0-3.57,5.33,19.92,19.92,0,0,0-.38,6S282.16,300,281.33,291.74Z" style="fill:#fff"></path><path d="M270.57,281.67a10.38,10.38,0,0,0-.85,6.36,19.83,19.83,0,0,0,2.34,5.59S275,288.71,270.57,281.67Z" style="fill:#fff"></path><path d="M247.28,285.05a10.37,10.37,0,0,0,2.14,6.05A19.87,19.87,0,0,0,254,295S254.4,289.32,247.28,285.05Z" style="fill:#fff"></path><path d="M232,286.51c10.64,54-22.81,31.5-50.93,31.5s-63.78,18.31-50.94-31.5c7.34-28.46,22.81-46.26,50.94-46.26S227.53,263.74,232,286.51Z" style="fill:#821AC2"></path><path d="M232,286.51c10.64,54-22.81,31.5-50.93,31.5s-63.78,18.31-50.94-31.5c7.34-28.46,22.81-46.26,50.94-46.26S227.53,263.74,232,286.51Z" style="fill:#fff;opacity:0.30000000000000004"></path><polygon points="165.03 313.11 178.75 323.57 177.34 395.48 185.63 395.48 184.04 306.41 203.66 284.83 183.8 301.8 183.08 269.67 180.92 291.69 175.81 287.99 164.67 272.19 171.83 286.55 148.79 277.25 172.27 290.52 180 295.88 179.11 319.24 165.03 313.11" style="fill:#a1a1a1"></polygon><path d="M172.77,260.66a10.38,10.38,0,0,0,.81,6.36,19.74,19.74,0,0,0,3.7,4.81S178.83,266.34,172.77,260.66Z" style="fill:#fff"></path><path d="M143.61,291.38a10.38,10.38,0,0,0,6,2.37,19.82,19.82,0,0,0,6-.91S151.51,288.82,143.61,291.38Z" style="fill:#fff"></path><path d="M139.53,305.8a10.34,10.34,0,0,0,6.39.49,19.94,19.94,0,0,0,5.45-2.65S146.31,301,139.53,305.8Z" style="fill:#fff"></path><path d="M159,307.3a10.39,10.39,0,0,0,6-2.22,19.7,19.7,0,0,0,3.85-4.67S163.15,300.13,159,307.3Z" style="fill:#fff"></path><path d="M150.77,264.26a10.32,10.32,0,0,0,3.45,5.4,19.61,19.61,0,0,0,5.39,2.77S158.67,266.8,150.77,264.26Z" style="fill:#fff"></path><path d="M208.78,261.69a10.41,10.41,0,0,0-5.69,3,19.7,19.7,0,0,0-3.23,5.13S205.55,269.33,208.78,261.69Z" style="fill:#fff"></path><path d="M221,280a10.38,10.38,0,0,0-6.36.81,19.84,19.84,0,0,0-4.8,3.7S215.32,286.06,221,280Z" style="fill:#fff"></path><path d="M219.8,300.79A10.39,10.39,0,0,0,214,298a20,20,0,0,0-6,.48S211.74,302.78,219.8,300.79Z" style="fill:#fff"></path><path d="M206.17,312a10.35,10.35,0,0,0-4.41-4.66,19.77,19.77,0,0,0-5.81-1.7S197.93,310.94,206.17,312Z" style="fill:#fff"></path><path d="M199,278.21a10.41,10.41,0,0,0-5.69,3,19.7,19.7,0,0,0-3.23,5.13S195.77,285.85,199,278.21Z" style="fill:#fff"></path><path d="M141.27,273.62a10.43,10.43,0,0,0,4.58,4.49,19.93,19.93,0,0,0,5.88,1.47S149.54,274.32,141.27,273.62Z" style="fill:#fff"></path><path d="M191.51,256.78a10.4,10.4,0,0,0-3.57,5.33,19.78,19.78,0,0,0-.37,6.05S192.35,265,191.51,256.78Z" style="fill:#fff"></path><path d="M180.75,246.72a10.38,10.38,0,0,0-.85,6.36,19.83,19.83,0,0,0,2.34,5.59S185.15,253.76,180.75,246.72Z" style="fill:#fff"></path><path d="M157.47,250.1a10.4,10.4,0,0,0,2.13,6,20,20,0,0,0,4.63,3.92S164.58,254.37,157.47,250.1Z" style="fill:#fff"></path><path d="M684,286.51c10.65,54-22.8,31.5-50.93,31.5s-63.77,18.31-50.93-31.5c7.34-28.46,22.8-46.26,50.93-46.26S679.55,263.74,684,286.51Z" style="fill:#821AC2"></path><path d="M684,286.51c10.65,54-22.8,31.5-50.93,31.5s-63.77,18.31-50.93-31.5c7.34-28.46,22.8-46.26,50.93-46.26S679.55,263.74,684,286.51Z" style="fill:#fff;opacity:0.30000000000000004"></path><polygon points="617.06 313.11 630.77 323.57 629.37 395.48 637.66 395.48 636.07 306.41 655.68 284.83 635.83 301.8 635.11 269.67 632.94 291.69 627.83 287.99 616.7 272.19 623.86 286.55 600.81 277.25 624.3 290.52 632.03 295.88 631.13 319.24 617.06 313.11" style="fill:#a1a1a1"></polygon><path d="M624.79,260.66a10.38,10.38,0,0,0,.81,6.36,19.74,19.74,0,0,0,3.7,4.81S630.85,266.34,624.79,260.66Z" style="fill:#fff"></path><path d="M595.64,291.38a10.38,10.38,0,0,0,6,2.37,19.8,19.8,0,0,0,6-.91S603.53,288.82,595.64,291.38Z" style="fill:#fff"></path><path d="M591.55,305.8a10.38,10.38,0,0,0,6.4.49,19.94,19.94,0,0,0,5.45-2.65S598.33,301,591.55,305.8Z" style="fill:#fff"></path><path d="M611,307.3a10.39,10.39,0,0,0,6-2.22,19.6,19.6,0,0,0,3.86-4.67S615.17,300.13,611,307.3Z" style="fill:#fff"></path><path d="M602.79,264.26a10.4,10.4,0,0,0,3.45,5.4,19.73,19.73,0,0,0,5.4,2.77S610.69,266.8,602.79,264.26Z" style="fill:#fff"></path><path d="M660.81,261.69a10.38,10.38,0,0,0-5.69,3,19.7,19.7,0,0,0-3.23,5.13S657.58,269.33,660.81,261.69Z" style="fill:#fff"></path><path d="M673,280a10.39,10.39,0,0,0-6.36.81,20.09,20.09,0,0,0-4.8,3.7S667.34,286.06,673,280Z" style="fill:#fff"></path><path d="M671.82,300.79A10.39,10.39,0,0,0,666,298a20,20,0,0,0-6,.48S663.76,302.78,671.82,300.79Z" style="fill:#fff"></path><path d="M658.19,312a10.37,10.37,0,0,0-4.4-4.66,19.79,19.79,0,0,0-5.82-1.7S650,310.94,658.19,312Z" style="fill:#fff"></path><path d="M651,278.21a10.41,10.41,0,0,0-5.69,3,19.82,19.82,0,0,0-3.22,5.13S647.79,285.85,651,278.21Z" style="fill:#fff"></path><path d="M593.29,273.62a10.41,10.41,0,0,0,4.59,4.49,19.86,19.86,0,0,0,5.88,1.47S601.57,274.32,593.29,273.62Z" style="fill:#fff"></path><path d="M643.54,256.78a10.39,10.39,0,0,0-3.58,5.33,19.78,19.78,0,0,0-.37,6.05S644.37,265,643.54,256.78Z" style="fill:#fff"></path><path d="M632.78,246.72a10.38,10.38,0,0,0-.85,6.36,19.65,19.65,0,0,0,2.33,5.59S637.17,253.76,632.78,246.72Z" style="fill:#fff"></path><path d="M609.49,250.1a10.4,10.4,0,0,0,2.13,6,20,20,0,0,0,4.63,3.92S616.61,254.37,609.49,250.1Z" style="fill:#fff"></path></g><g id="freepik--Smoke--inject-32"><path d="M553.09,185.42c.82,0,1.64,0,2.46,0,32,0,57.92-17,57.92-38,0-20.59-25-37.34-56.2-37.93C555,90.18,525,74.84,488.29,74.84c-38.18,0-69.13,16.58-69.13,37,0,15.41,17.57,28.61,42.56,34.19A12.1,12.1,0,0,0,459,149c-27.1,4.33-46.41,15.47-46.41,28.53,0,5.87,3.89,11.34,10.63,16-6.55,4.94-10.42,11-10.42,17.5a17.63,17.63,0,0,0,2.25,8.47c-1.87-.15-3.78-.24-5.73-.24-20.9,0-37.83,9-37.83,20.16,0,9,11,16.56,26.19,19.18a18.29,18.29,0,0,0-.53,25.89c-8.73,3.46-14.45,9.27-14.45,15.86a11.45,11.45,0,0,0,.44,3.14c-5.73,3-9.29,7.15-9.29,11.76,0,7.34,9,13.54,21.42,15.68a15,15,0,0,0-.44,21.17c-7.13,2.83-11.81,7.58-11.81,13,0,8.67,12.14,15.71,27.11,15.71,12.18,0,22.49-4.66,25.91-11.07a43.12,43.12,0,0,0,5.4.34c15,0,27.11-7.55,27.11-16.86,0-3.86-2.09-7.42-5.6-10.26,9.27-2.44,15.53-7.05,15.53-12.35,0-7.83-13.68-14.18-30.55-14.18a61.06,61.06,0,0,0-12.55,1.26,9.4,9.4,0,0,0,.3-1.9c1-.44,2-.93,2.91-1.44a50.43,50.43,0,0,0,11.63,1.32c16.45,0,29.79-7.38,29.79-16.48,0-.13,0-.27,0-.4a23.37,23.37,0,0,0,2.6-2.31,44.54,44.54,0,0,0,14.61,2.33c14.55,0,26.35-6.18,26.35-13.8,0-3.31-2.23-6.34-5.94-8.72a21.69,21.69,0,0,0,4.69-5.1l2,0c26.15,0,47.35-13.9,47.35-31,0-11.66-9.81-21.8-24.31-27.11,4.53-2.9,7.25-6.61,7.25-10.65s-2.73-7.77-7.27-10.68A26.13,26.13,0,0,0,553.09,185.42Zm-98.55,54.77q-3.85.33-7.5.86a10.48,10.48,0,0,0,.14-1.68c0-.19,0-.37,0-.56C449.54,239.36,452,239.83,454.54,240.19Z" style="fill:#b2b2b2"></path><path d="M557.27,109.56C555,90.18,525,74.84,488.29,74.84c-38.18,0-69.13,16.58-69.13,37,0,15.41,17.57,28.61,42.56,34.19A12.1,12.1,0,0,0,459,149c-27.1,4.33-46.41,15.47-46.41,28.53a13.68,13.68,0,0,0,.75,4.42c7-5.3,17.24-8.64,28.62-8.64a54.86,54.86,0,0,1,15.15,2.09,19.06,19.06,0,0,1-.54-4.47c0-15.76,19.45-28.54,43.45-28.54s43.44,12.78,43.44,28.54a19.22,19.22,0,0,1-.36,3.65c6.42,1.92,11.58,5.88,14.22,10.89,31.16-.62,56.12-17.36,56.12-37.94S588.46,110.15,557.27,109.56Z" style="fill:#787878"></path><path d="M495.31,130.46c13.76,0,25.51,7.57,30.2,18.24a25.61,25.61,0,0,0,2.18-10.31c0-15.76-14.5-28.53-32.38-28.53s-32.39,12.77-32.39,28.53a25.45,25.45,0,0,0,2.19,10.31C469.8,138,481.55,130.46,495.31,130.46Z" style="fill:#b2b2b2"></path><path d="M541.44,150.81c6.18,0,11.46,3.4,13.56,8.19a11.32,11.32,0,0,0,1-4.63c0-7.07-6.51-12.81-14.55-12.81s-14.54,5.74-14.54,12.81a11.32,11.32,0,0,0,1,4.63C530,154.21,535.27,150.81,541.44,150.81Z" style="fill:#b2b2b2"></path><path d="M547.37,213c3.48-2.23,5.88-4.94,6.81-7.91a26.53,26.53,0,0,1-15.56,7.52c9.25,6.68,15.37,18.28,15.37,31.47a40.11,40.11,0,0,1-7.38,23.42c14.92-5.22,25.07-15.53,25.07-27.39C571.68,228.44,561.87,218.3,547.37,213Z" style="fill:#787878"></path><path d="M511.9,170.89c13.76,0,25.51,7.57,30.2,18.23a25.6,25.6,0,0,0,2.18-10.3c0-15.76-14.5-28.54-32.38-28.54s-32.39,12.78-32.39,28.54a25.44,25.44,0,0,0,2.19,10.3C486.39,178.46,498.14,170.89,511.9,170.89Z" style="fill:#787878"></path><path d="M468.4,222.12c13.76,0,25.5,7.57,30.2,18.23a25.53,25.53,0,0,0,2.18-10.3c0-15.76-14.5-28.54-32.38-28.54S436,214.29,436,230.05a25.37,25.37,0,0,0,2.19,10.3C442.89,229.69,454.63,222.12,468.4,222.12Z" style="fill:#787878"></path><path d="M489.74,249.81c8.82,0,16.36,4.85,19.37,11.7a16.39,16.39,0,0,0,1.4-6.61c0-10.12-9.3-18.31-20.77-18.31S469,244.78,469,254.9a16.39,16.39,0,0,0,1.4,6.61C473.37,254.66,480.91,249.81,489.74,249.81Z" style="fill:#787878"></path><path d="M357.35,251.68c-1.17-10.1-16.87-18.1-36.08-18.1-20,0-36.15,8.64-36.15,19.3,0,8.91,11.31,16.41,26.68,18.63-17.16,1.44-30.1,7.86-30.1,15.58,0,5.53,6.67,10.4,16.78,13.25-5.11,1.88-8.48,5.09-8.48,8.73a5.84,5.84,0,0,0,.14,1.25A33.63,33.63,0,0,0,280,308.83c-10.93,0-19.79,4.7-19.79,10.5,0,4.68,5.75,8.64,13.7,10a9.8,9.8,0,0,0-2.95,6.9,9.7,9.7,0,0,0,2.67,6.59c-4.56,1.81-7.56,4.84-7.56,8.27,0,5.53,7.77,10,17.35,10,7.79,0,14.38-3,16.57-7.06a27.82,27.82,0,0,0,3.46.22c9.58,0,17.34-4.81,17.34-10.75A8.52,8.52,0,0,0,317.2,337c5.93-1.56,9.94-4.5,9.94-7.87,0-5-8.75-9-19.55-9a39.68,39.68,0,0,0-8,.79,5.65,5.65,0,0,0,.21-1.53,6,6,0,0,0-.11-1.12,31.63,31.63,0,0,0,9.4,1.37c10.52,0,19.05-4.71,19.05-10.51a6.14,6.14,0,0,0-.62-2.67,26.69,26.69,0,0,0,11.62,2.43c9.31,0,16.85-3.94,16.85-8.8,0-2.11-1.42-4-3.8-5.56a13.75,13.75,0,0,0,3-3.25l1.28,0c16.73,0,30.3-8.86,30.3-19.79C386.75,260.72,373.67,252,357.35,251.68Z" style="fill:#b2b2b2"></path><ellipse cx="330.07" cy="215.75" rx="16.12" ry="8.06" style="fill:#787878"></ellipse><path d="M360.45,210.28c4.32,0,7.83-1.76,7.83-3.92s-3.51-3.92-7.83-3.92-7.84,1.76-7.84,3.92S356.12,210.28,360.45,210.28Z" style="fill:#787878"></path><path d="M360.2,242.18c4.33,0,7.84-1.76,7.84-3.92s-3.51-3.92-7.84-3.92-7.83,1.76-7.83,3.92S355.87,242.18,360.2,242.18Z" style="fill:#787878"></path><path d="M577.7,194.81c4.33,0,7.84-1.75,7.84-3.92S582,187,577.7,187s-7.83,1.75-7.83,3.91S573.38,194.81,577.7,194.81Z" style="fill:#787878"></path><ellipse cx="565.14" cy="101.86" rx="7.84" ry="3.92" style="fill:#787878"></ellipse><path d="M352.8,253.17A30.09,30.09,0,0,0,340,256C338.38,245.81,328.43,238,316.38,238c-13.15,0-23.81,9.36-23.81,20.91a18.53,18.53,0,0,0,1.61,7.55c3.45-7.82,12.09-13.36,22.2-13.36A25.33,25.33,0,0,1,334,259.86a22.47,22.47,0,0,0-8.3,17.14,21.36,21.36,0,0,0,1.83,8.6c3.93-8.9,13.78-15.22,25.31-15.22s21.37,6.32,25.3,15.22a21.2,21.2,0,0,0,1.83-8.6C379.93,263.84,367.79,253.17,352.8,253.17Z" style="fill:#787878"></path><path d="M552.12,382.42c2.49,8.51,17.16,13.07,33.68,10.25,17.16-2.94,29.81-12.75,28.24-21.92-1.31-7.65-12.14-12.43-25.68-12.08,14.54-3.76,24.72-11.19,23.58-17.82-.81-4.76-7.26-8-16.37-8.92,4.11-2.37,6.53-5.63,6-8.76a5.47,5.47,0,0,0-.3-1.05,29.47,29.47,0,0,0,8.94-.21c9.4-1.61,16.32-7,15.47-12-.69-4-6.22-6.57-13.25-6.57a8.3,8.3,0,0,0-1.75-11.65c3.66-2.22,5.79-5.26,5.28-8.22-.81-4.75-8.15-7.46-16.38-6-6.7,1.14-11.93,4.67-13.21,8.5a24.09,24.09,0,0,0-3,.32c-8.24,1.41-14.21,6.69-13.33,11.8a7.41,7.41,0,0,0,4,5.09c-4.87,2.21-7.88,5.33-7.38,8.23.73,4.29,8.85,6.49,18.13,4.9a34.36,34.36,0,0,0,6.78-1.87,5.1,5.1,0,0,0,0,1.35,4.62,4.62,0,0,0,.26.95,27.68,27.68,0,0,0-8.28.2c-9,1.55-15.69,6.85-14.83,11.84a5.33,5.33,0,0,0,.92,2.2,23.25,23.25,0,0,0-10.34-.37c-8,1.37-13.91,5.86-13.2,10,.32,1.81,1.83,3.27,4.09,4.22a11.83,11.83,0,0,0-2.1,3.24l-1.11.17c-14.38,2.46-24.74,12.07-23.13,21.47C525.52,379,538.05,384.55,552.12,382.42Z" style="fill:#737373"></path><ellipse cx="580.86" cy="409.29" rx="14.06" ry="7.03" transform="translate(-60.73 103.88) rotate(-9.71)" style="fill:#737373"></ellipse></g><g id="freepik--Airplane--inject-32"><path d="M194.87,378.37s.89-9.84,3.39-11.9,5.93,2.58,8.55-5.11A11.75,11.75,0,0,0,204.23,349a29.06,29.06,0,0,1,5.05-6.58A21.6,21.6,0,0,1,216.4,338s-6.85,9-3.78,13.65,14.78.28,15.66-9.2-1.46-15.16-1.46-15.16,12.63,1.65,12.79-6.79C239.83,309.15,224,310,224,310s16-6,22.43,4.65-6.59,13.25-5.68,20.65,10.2.2,11-4.36a32.56,32.56,0,0,1,1.53-6.3s-2,13.33,4.75,8.89,2.36-13,8.44-18.14,8.2-5.47,8.2-5.47-6.76,3.74-4.12,12.94,11.22,2,11.22,2-4.36,6.95-2.71,13a17.8,17.8,0,0,0,6.5,9.28L198.3,382.66Z" style="fill:#fff"></path><path d="M198.3,383.16a.51.51,0,0,1-.39-.19l-3.43-4.29a.47.47,0,0,1-.11-.36c0-.41.94-10.07,3.57-12.24a4,4,0,0,1,3.27-.62c1.83.18,3.55.35,5.12-4.26a11.15,11.15,0,0,0-2.44-11.84.5.5,0,0,1-.1-.6,29,29,0,0,1,5.15-6.71,21.68,21.68,0,0,1,7.3-4.55.5.5,0,0,1,.57.18.48.48,0,0,1,0,.59c-.06.09-6.61,8.79-3.76,13.07,1,1.51,3.15,2,5.75,1.37a12.07,12.07,0,0,0,9-10.34c.87-9.22-1.4-14.86-1.43-14.91a.5.5,0,0,1,.07-.5.48.48,0,0,1,.46-.19c.07,0,7,.86,10.36-2.07a5.46,5.46,0,0,0,1.87-4.24,8.12,8.12,0,0,0-2.43-6.28c-4.23-4.1-12.59-3.71-12.67-3.71a.5.5,0,0,1-.2-1c.16-.06,16.41-6,23,4.86,4,6.66.74,10.43-2.17,13.75-1.95,2.22-3.78,4.32-3.44,7.1.22,1.79,1,2.72,2.2,2.75,2.78.05,7.27-4.07,7.8-7.13a34.33,34.33,0,0,1,1.56-6.42.5.5,0,0,1,.6-.28.49.49,0,0,1,.36.55c-.32,2.11-.74,7.83,1.11,9,.65.42,1.62.21,2.87-.61,3.32-2.18,3.81-5.4,4.32-8.81s1-6.68,4.08-9.29c6-5.1,8.22-5.55,8.45-5.58a.49.49,0,0,1,.54.33.5.5,0,0,1-.23.6c-.26.14-6.37,3.67-3.88,12.36.66,2.29,1.75,3.68,3.24,4.14,3.12,1,7.14-2.37,7.18-2.41a.51.51,0,0,1,.65,0,.5.5,0,0,1,.09.64c0,.07-4.22,6.84-2.65,12.57a17.39,17.39,0,0,0,6.3,9,.48.48,0,0,1,.22.47.51.51,0,0,1-.31.41l-87.24,35.61A.65.65,0,0,1,198.3,383.16Zm-2.92-5,3.08,3.84,86.08-35.14a18.05,18.05,0,0,1-6-9c-1.18-4.29.55-9,1.76-11.49-1.62,1-4.11,2.06-6.36,1.38-1.84-.56-3.15-2.18-3.91-4.82-1.5-5.25,0-8.82,1.6-11a51.23,51.23,0,0,0-4.87,3.73c-2.8,2.37-3.26,5.44-3.74,8.68-.53,3.48-1.07,7.07-4.76,9.49-1.61,1.06-2.95,1.27-4,.62-1.29-.82-1.73-2.91-1.83-5-.09.45-.18.93-.27,1.45-.57,3.29-5.31,8.06-8.81,8-1,0-2.79-.53-3.17-3.63s1.67-5.59,3.68-7.88c2.94-3.36,5.72-6.54,2.06-12.57-4.5-7.42-13.92-6.43-18.78-5.31,3,.27,7.35,1.15,10.18,3.89a9.09,9.09,0,0,1,2.73,7,6.46,6.46,0,0,1-2.22,5c-3,2.63-8.33,2.53-10.34,2.38a37.06,37.06,0,0,1,1.23,14.63A13.1,13.1,0,0,1,219,353.68c-3,.76-5.58.09-6.82-1.79-2.5-3.76.95-10,2.79-12.78a21,21,0,0,0-5.37,3.66,28.73,28.73,0,0,0-4.78,6.14,12.4,12.4,0,0,1,2.43,12.61c-1.83,5.37-4.23,5.12-6.17,4.93a3.16,3.16,0,0,0-2.53.41C196.71,368.4,195.66,375.39,195.38,378.21Z" style="fill:#263238"></path><path d="M235.61,300.65a13.5,13.5,0,0,0-7.24-3.45,12.26,12.26,0,0,0-7.17.79S228.32,303.19,235.61,300.65Z" style="fill:#fff"></path><path d="M231.35,301.86a19.62,19.62,0,0,1-10.45-3.46.51.51,0,0,1-.2-.44.52.52,0,0,1,.26-.41c.11-.06,2.83-1.51,7.48-.84A13.82,13.82,0,0,1,236,300.3a.49.49,0,0,1,.13.46.51.51,0,0,1-.32.36A13.28,13.28,0,0,1,231.35,301.86Zm-9.07-3.77c1.91,1.16,7,3.76,12.33,2.34a13.77,13.77,0,0,0-12.33-2.34Z" style="fill:#263238"></path><path d="M480.75,323.18s-5.41-11.63-9.37-13.05-6.12,5.76-12.69-2.49a15.26,15.26,0,0,1-2.28-16.24,37.73,37.73,0,0,0-9.06-5.83,28,28,0,0,0-10.65-2.29s12.34,8,10.61,15-17.92,6.83-23.17-4.36-4.86-19.17-4.86-19.17-14.71,7.57-18.62-2.67c-5.23-13.74,14.49-19.7,14.49-19.7S393,252,389.79,267.92s13.86,13.29,16,22.74-12.37,4.72-15.34-.5a42.15,42.15,0,0,0-4.64-7s8.32,15.4-1.91,12.94-8.57-14.81-18.27-18.45-12.42-3.08-12.42-3.08,9.9,1.6,10.72,14-12.85,7.34-12.85,7.34,8.38,6.58,9,14.65a23.06,23.06,0,0,1-3.88,14.18l122.22,5.21Z" style="fill:#fff"></path><path d="M478.43,330.42h0l-122.22-5.21a.5.5,0,0,1-.43-.28.49.49,0,0,1,.05-.51,22.79,22.79,0,0,0,3.78-13.85c-.6-7.75-8.73-14.24-8.81-14.3a.5.5,0,0,1,.48-.86c.06,0,6.5,2.35,10-.23,1.67-1.25,2.4-3.47,2.2-6.61-.78-11.83-9.91-13.47-10.3-13.54a.5.5,0,0,1-.42-.48.51.51,0,0,1,.4-.5c.12,0,3-.54,12.7,3.11,4.85,1.82,6.95,5.72,9,9.49,2.14,4,4.16,7.72,9.23,8.93,2,.48,3.29.29,3.94-.56,1.78-2.32-1.26-9.2-2.59-11.66a.5.5,0,0,1,.15-.64.49.49,0,0,1,.66.07,42.48,42.48,0,0,1,4.7,7.12c2,3.56,9.47,6.67,12.85,5.36,1.58-.62,2.11-2.13,1.57-4.5-.82-3.62-4-5.39-7.39-7.27-5-2.75-10.6-5.88-8.61-15.68,3.27-16.11,25.62-15.93,25.86-15.93a.49.49,0,0,1,.48.43.49.49,0,0,1-.35.55c-.1,0-10.55,3.26-13.94,10.18a10.7,10.7,0,0,0-.22,8.86,7.27,7.27,0,0,0,4.24,4.44c5.51,2.11,13.6-2,13.68-2a.52.52,0,0,1,.5,0,.51.51,0,0,1,.23.45c0,.08-.31,8,4.82,18.93,3.17,6.77,10.35,9.28,15.67,8.76,3.53-.35,6-2,6.56-4.31,1.62-6.58-10.28-14.4-10.4-14.48a.48.48,0,0,1-.21-.55.49.49,0,0,1,.47-.36,28.16,28.16,0,0,1,10.86,2.33,37.87,37.87,0,0,1,9.2,5.92.49.49,0,0,1,.1.6c-.16.32-4,7.81,2.24,15.69,4,5.05,6.1,4.06,8.3,3,1.26-.6,2.57-1.23,4.16-.66,4.11,1.48,9.43,12.82,9.65,13.31a.47.47,0,0,1,0,.37l-2.31,6.75A.5.5,0,0,1,478.43,330.42Zm-121.31-6.17,121,5.16,2.13-6.2c-1.56-3.31-6-11.52-9-12.61-1.19-.42-2.21.06-3.39.62-2.34,1.12-5,2.4-9.52-3.27a16,16,0,0,1-2.5-16.42,37.47,37.47,0,0,0-8.66-5.5,27.71,27.71,0,0,0-8.74-2.18c3.27,2.41,10.84,8.7,9.4,14.56-.69,2.78-3.46,4.67-7.43,5.06-5.67.56-13.3-2.12-16.68-9.33-4.34-9.26-4.87-16.26-4.91-18.58-2.2,1-8.79,3.63-13.76,1.72a8.19,8.19,0,0,1-4.82-5,11.65,11.65,0,0,1,.25-9.65c2.42-4.94,8-8,11.5-9.54-6.16.6-19.29,3.26-21.67,14.95-1.84,9.08,3,11.77,8.12,14.61,3.42,1.9,7,3.87,7.88,7.92.87,3.84-1,5.19-2.19,5.65-4.1,1.59-12-2.16-14.08-5.8-.6-1.06-1.15-2-1.64-2.76,1,2.84,1.75,6.21.38,8-.91,1.19-2.58,1.5-5,.93-5.51-1.33-7.73-5.45-9.88-9.44-1.94-3.61-4-7.34-8.45-9a63.4,63.4,0,0,0-8.52-2.64c3.05,1.72,7,5.4,7.49,13.05.23,3.51-.65,6-2.6,7.48-2.58,1.92-6.39,1.51-8.77,1,2.53,2.41,7.06,7.53,7.53,13.53A23.34,23.34,0,0,1,357.12,324.25Z" style="fill:#263238"></path><rect x="416.89" y="311.09" width="27.19" height="3.33" transform="translate(6.12 -8.25) rotate(1.11)" style="fill:#fff"></rect><path d="M444.05,315.18h0l-27.19-.53a.49.49,0,0,1-.49-.51l.06-3.33a.52.52,0,0,1,.16-.35.57.57,0,0,1,.35-.14l27.19.53a.51.51,0,0,1,.35.15.54.54,0,0,1,.14.36l-.06,3.33A.51.51,0,0,1,444.05,315.18Zm-26.68-1.52,26.19.51,0-2.33-26.19-.51Z" style="fill:#263238"></path><path d="M416.86,314.15s-10.33,8-12.74,15.39c0,0,1.89-14.21,12.8-18.72Z" style="fill:#fff"></path><path d="M404.12,330H404a.51.51,0,0,1-.39-.55c0-.15,2.06-14.56,13.11-19.12a.54.54,0,0,1,.48.05.5.5,0,0,1,.21.42l-.06,3.33a.51.51,0,0,1-.19.39c-.11.08-10.24,8-12.58,15.15A.48.48,0,0,1,404.12,330Zm12.29-18.44c-6.26,2.94-9.31,9.3-10.71,13.62,3.51-5.48,9.49-10.38,10.66-11.31Zm.45,2.55h0Z" style="fill:#263238"></path><path d="M422.88,258l-2.63-2.7a1.42,1.42,0,0,1,0-2h0a1.42,1.42,0,0,1,2,0l2.62,2.7a1.42,1.42,0,0,1,0,2h0A1.41,1.41,0,0,1,422.88,258Z" style="fill:#fff"></path><path d="M423.89,259a1.92,1.92,0,0,1-1.37-.58h0l-2.63-2.7a1.92,1.92,0,0,1,0-2.71,1.86,1.86,0,0,1,1.36-.54,1.92,1.92,0,0,1,1.34.58l2.63,2.7a1.92,1.92,0,0,1,0,2.71A1.9,1.9,0,0,1,423.89,259Zm-.66-1.28a.91.91,0,0,0,1.31-1.27l-2.62-2.7a.92.92,0,0,0-.64-.28,1,1,0,0,0-.65.26.91.91,0,0,0,0,1.29Z" style="fill:#263238"></path><path d="M349.13,284.89l-2.63-2.7a1.42,1.42,0,0,1,0-2h0a1.41,1.41,0,0,1,2,0l2.62,2.7a1.41,1.41,0,0,1,0,2h0A1.41,1.41,0,0,1,349.13,284.89Z" style="fill:#fff"></path><path d="M350.14,285.81h0a1.87,1.87,0,0,1-1.34-.57l-2.63-2.71a1.9,1.9,0,0,1-.54-1.36,1.94,1.94,0,0,1,.58-1.34,1.78,1.78,0,0,1,1.36-.54,1.92,1.92,0,0,1,1.35.58l2.62,2.7a1.88,1.88,0,0,1,.54,1.36,1.84,1.84,0,0,1-.58,1.34A1.89,1.89,0,0,1,350.14,285.81Zm-2.63-5.52a.92.92,0,0,0-.91.9.94.94,0,0,0,.26.65l2.62,2.7h0a.88.88,0,0,0,.64.27.85.85,0,0,0,.65-.25.91.91,0,0,0,.27-.64.87.87,0,0,0-.26-.65l-2.62-2.7a.88.88,0,0,0-.64-.28Z" style="fill:#263238"></path><path d="M412.9,241.7l-3.71.64a1.42,1.42,0,0,1-1.63-1.16h0a1.4,1.4,0,0,1,1.15-1.63l3.71-.63a1.42,1.42,0,0,1,1.63,1.16h0A1.4,1.4,0,0,1,412.9,241.7Z" style="fill:#fff"></path><path d="M408.94,242.86a1.92,1.92,0,0,1-1.1-.35,2,2,0,0,1-.78-1.24,1.91,1.91,0,0,1,.33-1.43,1.88,1.88,0,0,1,1.24-.78l3.71-.63a1.92,1.92,0,0,1,1.43.32,2,2,0,0,1,.78,1.24A1.93,1.93,0,0,1,413,242.2h0l-3.71.63Zm3.72-3.46h-.15l-3.71.64a.89.89,0,0,0-.6.37.91.91,0,0,0-.15.68.89.89,0,0,0,.37.59.92.92,0,0,0,.68.16l3.72-.64a.9.9,0,0,0,.74-1.05.89.89,0,0,0-.37-.59A.93.93,0,0,0,412.66,239.4Zm.24,2.31h0Z" style="fill:#263238"></path><path d="M435.64,295.28l-3.71.64a1.42,1.42,0,0,1-1.63-1.16h0a1.4,1.4,0,0,1,1.15-1.63l3.71-.63a1.41,1.41,0,0,1,1.63,1.15h0A1.41,1.41,0,0,1,435.64,295.28Z" style="fill:#fff"></path><path d="M431.68,296.44a1.93,1.93,0,0,1-1.88-1.6,1.89,1.89,0,0,1,.33-1.42,1.84,1.84,0,0,1,1.24-.78l3.71-.64a1.92,1.92,0,0,1,.64,3.78l-3.71.63ZM435.4,293h-.15l-3.72.63a.94.94,0,0,0-.59.38.9.9,0,0,0-.15.68.89.89,0,0,0,.37.59.91.91,0,0,0,.68.15l3.71-.63h0a.89.89,0,0,0,.6-.37.91.91,0,0,0,.15-.68.89.89,0,0,0-.37-.59A.93.93,0,0,0,435.4,293Z" style="fill:#263238"></path><path d="M412.69,287.71l-3.71.63a1.4,1.4,0,0,1-1.63-1.15h0a1.4,1.4,0,0,1,1.15-1.63l3.71-.63a1.41,1.41,0,0,1,1.63,1.15h0A1.41,1.41,0,0,1,412.69,287.71Z" style="fill:#fff"></path><path d="M408.73,288.87a1.93,1.93,0,0,1-1.88-1.6,1.89,1.89,0,0,1,.33-1.42,1.84,1.84,0,0,1,1.24-.78l3.71-.64a1.93,1.93,0,0,1,2.21,1.57,1.94,1.94,0,0,1-1.57,2.21l-3.71.63A1.84,1.84,0,0,1,408.73,288.87Zm3.72-3.46h-.15l-3.72.63a.9.9,0,0,0-.74,1.06.89.89,0,0,0,.37.59.91.91,0,0,0,.68.15l3.71-.63h0a.94.94,0,0,0,.6-.37.92.92,0,0,0-.75-1.44Z" style="fill:#263238"></path><path d="M413.81,209.83l-1.41,3.49a1.41,1.41,0,0,1-1.84.79h0a1.42,1.42,0,0,1-.78-1.84l1.41-3.49A1.4,1.4,0,0,1,413,208h0A1.42,1.42,0,0,1,413.81,209.83Z" style="fill:#fff"></path><path d="M411.09,214.71a1.76,1.76,0,0,1-.71-.14,1.91,1.91,0,0,1-1.06-2.49l1.4-3.49a1.91,1.91,0,1,1,3.55,1.43l-1.4,3.49A1.91,1.91,0,0,1,411.09,214.71Zm1.41-6.32a.92.92,0,0,0-.85.57l-1.41,3.5a.92.92,0,0,0,1.7.68l1.4-3.5h0a.91.91,0,0,0-.5-1.18A.83.83,0,0,0,412.5,208.39Z" style="fill:#263238"></path><path d="M413,302.15l-1.41,3.49a1.41,1.41,0,0,1-1.84.79h0a1.42,1.42,0,0,1-.78-1.84l1.41-3.5a1.41,1.41,0,0,1,1.83-.78h0A1.41,1.41,0,0,1,413,302.15Z" style="fill:#fff"></path><path d="M410.31,307a2,2,0,0,1-.71-.14,1.88,1.88,0,0,1-1.05-1,1.92,1.92,0,0,1,0-1.47l1.4-3.49a1.91,1.91,0,1,1,3.55,1.42l-1.4,3.5a1.91,1.91,0,0,1-1.78,1.2Zm1.41-6.32a.92.92,0,0,0-.85.57l-1.41,3.5a.92.92,0,0,0,0,.69.89.89,0,0,0,.5.49.94.94,0,0,0,.7,0,1,1,0,0,0,.49-.5l1.4-3.5h0a.91.91,0,0,0-.5-1.18A.83.83,0,0,0,411.72,300.71Z" style="fill:#263238"></path><path d="M381.4,273l-1.4,3.49a1.42,1.42,0,0,1-1.84.79h0a1.42,1.42,0,0,1-.78-1.84l1.4-3.49a1.41,1.41,0,0,1,1.84-.79h0A1.42,1.42,0,0,1,381.4,273Z" style="fill:#fff"></path><path d="M378.68,277.91a1.83,1.83,0,0,1-.71-.14,1.92,1.92,0,0,1-1.06-2.49l1.41-3.49a1.91,1.91,0,0,1,3.55,1.43l-1.41,3.49A1.91,1.91,0,0,1,378.68,277.91Zm1.41-6.32a.91.91,0,0,0-.84.57l-1.41,3.5a.91.91,0,0,0,1.69.68l1.41-3.5h0a.9.9,0,0,0,0-.7.88.88,0,0,0-.5-.48A.8.8,0,0,0,380.09,271.59Z" style="fill:#263238"></path><path d="M381.34,305.93l-1.41,3.5a1.41,1.41,0,0,1-1.83.78h0a1.4,1.4,0,0,1-.79-1.83l1.41-3.5a1.42,1.42,0,0,1,1.84-.78h0A1.41,1.41,0,0,1,381.34,305.93Z" style="fill:#fff"></path><path d="M378.62,310.81a1.94,1.94,0,0,1-.71-.13,2,2,0,0,1-1.05-1,1.9,1.9,0,0,1,0-1.46l1.41-3.5a1.91,1.91,0,0,1,2.48-1.06,1.91,1.91,0,0,1,1.06,2.49h0l-1.4,3.5A1.92,1.92,0,0,1,378.62,310.81Zm1.41-6.32a.94.94,0,0,0-.36.08.89.89,0,0,0-.49.5l-1.4,3.49a.92.92,0,0,0,.5,1.19.89.89,0,0,0,.7,0,.86.86,0,0,0,.49-.5l1.41-3.49.46.18-.46-.18a.92.92,0,0,0-.51-1.19A1,1,0,0,0,380,304.49Z" style="fill:#263238"></path><path d="M260.22,300.46l-2-2.08a1.09,1.09,0,0,1,0-1.54h0a1.09,1.09,0,0,1,1.54,0l2,2.08a1.09,1.09,0,0,1,0,1.54h0A1.09,1.09,0,0,1,260.22,300.46Z" style="fill:#fff"></path><path d="M261,301.29a1.59,1.59,0,0,1-1.14-.48l-2-2.08a1.57,1.57,0,0,1-.45-1.14,1.51,1.51,0,0,1,.48-1.11A1.66,1.66,0,0,1,259,296a1.59,1.59,0,0,1,1.12.48l2,2.08a1.59,1.59,0,0,1,0,2.25A1.59,1.59,0,0,1,261,301.29ZM259,297a.57.57,0,0,0-.41.17.59.59,0,0,0,0,.83l2,2.08h0a.59.59,0,0,0,.83,0,.56.56,0,0,0,.18-.42.59.59,0,0,0-.17-.42l-2-2.08A.56.56,0,0,0,259,297Z" style="fill:#263238"></path><path d="M203.32,321.18l-2-2.08a1.1,1.1,0,0,1,0-1.54h0a1.09,1.09,0,0,1,1.54,0l2,2.08a1.09,1.09,0,0,1,0,1.54h0A1.09,1.09,0,0,1,203.32,321.18Z" style="fill:#fff"></path><path d="M204.1,322a1.59,1.59,0,0,1-1.14-.48l-2-2.08a1.56,1.56,0,0,1-.45-1.13,1.52,1.52,0,0,1,.48-1.12,1.58,1.58,0,0,1,1.1-.45h0a1.64,1.64,0,0,1,1.12.48l2,2.09A1.59,1.59,0,0,1,204.1,322Zm-2-4.26a.57.57,0,0,0-.41.17.59.59,0,0,0,0,.83l2,2.08h0a.59.59,0,1,0,.84-.82l-2-2.08a.6.6,0,0,0-.42-.18Z" style="fill:#263238"></path><path d="M252.52,287.87l-2.86.48a1.08,1.08,0,0,1-1.26-.89h0a1.09,1.09,0,0,1,.89-1.25l2.87-.49a1.09,1.09,0,0,1,1.25.89h0A1.09,1.09,0,0,1,252.52,287.87Z" style="fill:#fff"></path><path d="M249.48,288.87a1.59,1.59,0,0,1-1.3-2.51,1.55,1.55,0,0,1,1-.65l2.86-.49a1.58,1.58,0,0,1,1.19.28,1.55,1.55,0,0,1,.65,1,1.6,1.6,0,0,1-1.3,1.84h0l-2.87.49Zm2.86-2.67h-.1l-2.86.49a.59.59,0,0,0-.49.68.59.59,0,0,0,.68.48l2.87-.49a.58.58,0,0,0,.48-.68.59.59,0,0,0-.58-.49Zm.18,1.67h0Z" style="fill:#263238"></path><path d="M270.07,329.2l-2.87.49a1.09,1.09,0,0,1-1.25-.89h0a1.08,1.08,0,0,1,.89-1.26l2.86-.49a1.1,1.1,0,0,1,1.26.9h0A1.09,1.09,0,0,1,270.07,329.2Z" style="fill:#fff"></path><path d="M267,330.21a1.61,1.61,0,0,1-1.57-1.33,1.6,1.6,0,0,1,1.3-1.83l2.87-.49a1.6,1.6,0,0,1,1.83,1.3,1.58,1.58,0,0,1-.27,1.19,1.62,1.62,0,0,1-1,.65l-2.86.48Zm2.86-2.67h-.09l-2.87.49a.58.58,0,0,0-.48.68.56.56,0,0,0,.24.38.58.58,0,0,0,.44.1l2.86-.49h0a.6.6,0,0,0,.39-.24.62.62,0,0,0,.1-.44A.59.59,0,0,0,269.88,327.54Z" style="fill:#263238"></path><path d="M252.36,323.36l-2.86.49a1.09,1.09,0,0,1-1.26-.89h0a1.1,1.1,0,0,1,.89-1.26l2.86-.49a1.09,1.09,0,0,1,1.26.89h0A1.09,1.09,0,0,1,252.36,323.36Z" style="fill:#fff"></path><path d="M249.31,324.37a1.56,1.56,0,0,1-.92-.3,1.57,1.57,0,0,1-.64-1,1.5,1.5,0,0,1,.27-1.18,1.55,1.55,0,0,1,1-.65l2.86-.49a1.62,1.62,0,0,1,1.19.27,1.6,1.6,0,0,1-.65,2.87h0l-2.86.48A1.24,1.24,0,0,1,249.31,324.37Zm2.87-2.67h-.1l-2.87.49a.59.59,0,0,0-.48.68.6.6,0,0,0,.24.38.58.58,0,0,0,.44.1l2.87-.49a.6.6,0,0,0,.48-.68.58.58,0,0,0-.24-.38A.6.6,0,0,0,252.18,321.7Zm.18,1.66h0Z" style="fill:#263238"></path><path d="M253.22,263.27l-1.08,2.7a1.09,1.09,0,0,1-1.42.6h0a1.07,1.07,0,0,1-.6-1.41l1.08-2.7a1.1,1.1,0,0,1,1.42-.61h0A1.09,1.09,0,0,1,253.22,263.27Z" style="fill:#fff"></path><path d="M251.13,267.15a1.71,1.71,0,0,1-.59-.11,1.55,1.55,0,0,1-.87-.85,1.57,1.57,0,0,1,0-1.22l1.09-2.7a1.6,1.6,0,0,1,2.07-.88,1.61,1.61,0,0,1,.88,2.07l-1.09,2.7a1.56,1.56,0,0,1-.85.86A1.5,1.5,0,0,1,251.13,267.15Zm1.08-4.87a.58.58,0,0,0-.54.37l-1.09,2.69a.54.54,0,0,0,0,.45.56.56,0,0,0,.32.32.6.6,0,0,0,.77-.33l1.08-2.69h0a.61.61,0,0,0,0-.46.63.63,0,0,0-.33-.31A.54.54,0,0,0,252.21,262.28Z" style="fill:#263238"></path><path d="M252.62,334.5l-1.08,2.7a1.09,1.09,0,0,1-1.42.6h0a1.08,1.08,0,0,1-.6-1.42l1.08-2.69a1.1,1.1,0,0,1,1.42-.61h0A1.09,1.09,0,0,1,252.62,334.5Z" style="fill:#fff"></path><path d="M250.53,338.38a1.81,1.81,0,0,1-.6-.11,1.63,1.63,0,0,1-.87-.86,1.59,1.59,0,0,1,0-1.21l1.09-2.7a1.59,1.59,0,0,1,3,1.19L252,337.38a1.55,1.55,0,0,1-.85.87A1.5,1.5,0,0,1,250.53,338.38Zm1.08-4.88a.6.6,0,0,0-.55.38L250,336.57a.58.58,0,0,0,0,.45.61.61,0,0,0,.33.32.59.59,0,0,0,.76-.33l1.09-2.7h0a.59.59,0,0,0-.33-.76A.54.54,0,0,0,251.61,333.5Z" style="fill:#263238"></path><path d="M228.22,312l-1.08,2.7a1.1,1.1,0,0,1-1.42.61h0a1.09,1.09,0,0,1-.6-1.42l1.08-2.7a1.08,1.08,0,0,1,1.42-.6h0A1.07,1.07,0,0,1,228.22,312Z" style="fill:#fff"></path><path d="M226.13,315.92a1.6,1.6,0,0,1-1.48-2.19l1.09-2.7a1.58,1.58,0,0,1,2.06-.88,1.6,1.6,0,0,1,.89,2.07l-1.09,2.7a1.61,1.61,0,0,1-.85.87A1.68,1.68,0,0,1,226.13,315.92Zm1.08-4.88a.61.61,0,0,0-.55.37l-1.08,2.69a.59.59,0,0,0,.33.77.57.57,0,0,0,.76-.33l1.09-2.69h0a.6.6,0,0,0-.33-.77A.54.54,0,0,0,227.21,311Z" style="fill:#263238"></path><path d="M228.17,337.42l-1.08,2.7a1.08,1.08,0,0,1-1.42.6h0a1.07,1.07,0,0,1-.6-1.41l1.08-2.7a1.1,1.1,0,0,1,1.42-.61h0A1.09,1.09,0,0,1,228.17,337.42Z" style="fill:#fff"></path><path d="M226.08,341.3a1.71,1.71,0,0,1-.59-.11,1.61,1.61,0,0,1-.89-2.07l1.09-2.7a1.59,1.59,0,1,1,2.95,1.19l-1.09,2.69a1.52,1.52,0,0,1-.85.87A1.5,1.5,0,0,1,226.08,341.3Zm1.08-4.88a.6.6,0,0,0-.54.37l-1.09,2.7a.54.54,0,0,0,0,.45.56.56,0,0,0,.32.32.54.54,0,0,0,.45,0,.56.56,0,0,0,.32-.32l1.08-2.69h0a.59.59,0,0,0-.33-.77A.54.54,0,0,0,227.16,336.42Z" style="fill:#263238"></path><polygon points="521.76 307.73 479.56 291.46 472.19 291.31 514.26 314.26 521.76 307.73" style="fill:#821AC2"></polygon><path d="M514.26,314.76a.5.5,0,0,1-.24-.06L472,291.75a.49.49,0,0,1-.24-.56.48.48,0,0,1,.49-.38l7.37.15a.47.47,0,0,1,.17,0l42.2,16.27a.53.53,0,0,1,.32.38.52.52,0,0,1-.17.47l-7.5,6.53A.52.52,0,0,1,514.26,314.76Zm-40-22.91,40,21.81,6.62-5.76L479.47,292Z" style="fill:#263238"></path><polygon points="297.3 339.78 249.45 227.93 273.29 224.43 355.6 321.1 297.3 339.78" style="fill:#821AC2"></polygon><path d="M297.3,340.28a.51.51,0,0,1-.46-.31L249,228.13a.52.52,0,0,1,0-.44.49.49,0,0,1,.37-.25l23.83-3.5a.5.5,0,0,1,.46.17L356,320.77a.48.48,0,0,1,.1.46.51.51,0,0,1-.33.34l-58.3,18.68ZM250.16,228.33l47.42,110.83,57.15-18.31L273.08,225Z" style="fill:#263238"></path><polygon points="273.29 224.43 276.56 224.03 311.67 262.41 307.69 264.88 273.29 224.43" style="fill:#821AC2"></polygon><path d="M307.69,265.38a.49.49,0,0,1-.38-.18L272.9,224.75a.5.5,0,0,1-.08-.5.49.49,0,0,1,.4-.31l3.28-.4a.47.47,0,0,1,.43.15L312,262.07a.5.5,0,0,1,.12.41.49.49,0,0,1-.23.35l-4,2.47A.5.5,0,0,1,307.69,265.38Zm-33.42-40.57,33.52,39.41,3.1-1.92-34.52-37.74Z" style="fill:#263238"></path><path d="M329.08,316.78l-33.42,17.63s-63.8,13.56-108.4,47.08l-1,8.69,16.61,18.6s199.76-.06,234.29-7.66,98.44-49.89,106-55.4,17.66-13.15,16-17.1a26.53,26.53,0,0,0-4.65-7.06Z" style="fill:#821AC2"></path><path d="M202.83,409.28a.5.5,0,0,1-.37-.17l-16.61-18.6a.52.52,0,0,1-.13-.39l1-8.69a.55.55,0,0,1,.2-.34c43.53-32.71,106.09-46.62,108.53-47.15l33.35-17.61a.45.45,0,0,1,.25-.05l225.34,4.78a.54.54,0,0,1,.35.16,26.52,26.52,0,0,1,4.75,7.2c1.73,4.11-7,11-16.16,17.7C536,351.57,471.7,394,437.22,401.6,403,409.13,204.83,409.28,202.83,409.28ZM186.74,390l16.32,18.27c7.73,0,200.39-.26,234-7.65,34.31-7.56,98.37-49.88,105.76-55.32,6.08-4.46,17.4-12.78,15.84-16.5a26.1,26.1,0,0,0-4.42-6.75l-225-4.78-33.3,17.57-.13,0c-.63.13-64,13.89-108,46.87Zm108.92-55.6h0Z" style="fill:#263238"></path><path d="M299.06,388.33s140.17-1.21,164.61-10.13S507.84,361,507.84,361s-31.69,19.75-45.14,26.53-161.48,11-161.48,11Z" style="fill:#fff"></path><path d="M301.22,399.05a.5.5,0,0,1-.49-.4l-2.16-10.22a.53.53,0,0,1,.1-.42.53.53,0,0,1,.39-.18c1.4,0,140.36-1.31,164.44-10.1s43.95-17.06,44.15-17.15a.51.51,0,0,1,.64.24.5.5,0,0,1-.18.65c-.32.2-31.87,19.83-45.18,26.55s-155.65,10.86-161.7,11Zm-1.54-10.23,1.94,9.22c8.73-.26,148-4.43,160.86-10.91,10-5.06,30.4-17.46,39.95-23.33-7.58,3.07-22.07,8.84-38.59,14.87C440.42,387.22,309.8,388.72,299.68,388.82Z" style="fill:#263238"></path><polygon points="295.66 334.41 304.64 342.85 333.33 321.65 329.08 316.78 295.66 334.41" style="fill:#263238"></polygon><path d="M304.64,343.35a.51.51,0,0,1-.35-.13l-9-8.45a.47.47,0,0,1-.15-.43.46.46,0,0,1,.26-.37l33.41-17.64a.5.5,0,0,1,.61.12l4.26,4.87a.47.47,0,0,1,.12.38.49.49,0,0,1-.2.35l-28.7,21.2A.45.45,0,0,1,304.64,343.35Zm-8.13-8.82,8.17,7.67,27.92-20.63L329,317.4Z" style="fill:#263238"></path><polygon points="337.63 324.78 309.78 346.87 330.69 368.16 353.9 338.15 337.63 324.78" style="fill:#263238"></polygon><path d="M330.69,368.66a.47.47,0,0,1-.35-.15l-20.92-21.29a.53.53,0,0,1-.14-.38.5.5,0,0,1,.19-.36l27.85-22.1a.5.5,0,0,1,.62,0l16.28,13.37a.49.49,0,0,1,.08.69l-23.21,30a.52.52,0,0,1-.37.19Zm-20.16-21.75,20.12,20.49,22.56-29.18-15.59-12.8Z" style="fill:#263238"></path><path d="M358.63,341.28l-16.64,28,42.24-1.36s7.48-4.21,6-15.55-3.74-9.21-3.74-9.21Z" style="fill:#263238"></path><path d="M342,369.75a.48.48,0,0,1-.43-.25.52.52,0,0,1,0-.51l16.64-28a.48.48,0,0,1,.46-.24l27.65,1.83a1.2,1.2,0,0,1,1-.08c1.47.51,2.57,3.69,3.38,9.73,1.55,11.55-6.13,16-6.21,16.06a.43.43,0,0,1-.22.06L342,369.75ZM358.9,341.8l-16,26.92,41.19-1.32c.91-.56,7-4.73,5.61-15-1-7.66-2.33-8.76-2.7-8.91a.23.23,0,0,0-.21,0,.44.44,0,0,1-.36.13Z" style="fill:#263238"></path><path d="M187.26,381.49s3.91.08,10.73,7.61a46.09,46.09,0,0,1,9.28,15.41L266.68,393l7.13-9,11.85,17.63-26.58,1.67-10-1.94-11.89,7.17-34.39.21-16.61-18.6Z" style="fill:#263238"></path><path d="M202.83,409.28a.5.5,0,0,1-.37-.17l-16.61-18.6a.52.52,0,0,1-.13-.39l1-8.69a.51.51,0,0,1,.5-.44h0c.17,0,4.21.17,11.09,7.77a47.71,47.71,0,0,1,9.24,15.18l58.8-11.36,7-8.85a.52.52,0,0,1,.41-.19.47.47,0,0,1,.4.22l11.84,17.63a.5.5,0,0,1,0,.5.5.5,0,0,1-.42.28l-26.58,1.66H259l-9.78-1.9L237.48,409a.59.59,0,0,1-.26.07l-34.38.21ZM186.74,390l16.32,18.27,34-.21,11.77-7.1a.53.53,0,0,1,.35-.06l9.91,1.92,25.65-1.6-11-16.35-6.71,8.47a.52.52,0,0,1-.3.18L207.36,405a.51.51,0,0,1-.57-.34,45.85,45.85,0,0,0-9.17-15.22c-5.25-5.8-8.74-7.09-9.93-7.37Z" style="fill:#263238"></path><path d="M328.73,402.07s5.67-23,23.08-23.06,11.29,23.72,11.29,23.72Z" style="fill:#263238"></path><path d="M363.1,403.23h0l-34.37-.66a.51.51,0,0,1-.47-.62c.06-.23,6-23.34,23.56-23.44,4.28,0,7.58,1.38,9.75,4.17,5.36,6.87,2.17,19.64,2,20.18A.5.5,0,0,1,363.1,403.23Zm-33.71-1.65,33.32.65c.49-2.18,2.63-13.09-1.93-18.94-2-2.5-4.94-3.78-8.86-3.78h-.11C336.57,379.6,330.44,398,329.39,401.58Z" style="fill:#263238"></path><path d="M404.12,329.54s4.41,19.24,3.23,35.32-11.06,32-11.06,32l30.09-3.34s9.54-20.7,9-38.56-4.22-29.67-11.56-32.43S408.2,320.92,404.12,329.54Z" style="fill:#263238"></path><path d="M396.29,397.35a.49.49,0,0,1-.42-.24.49.49,0,0,1,0-.53c.09-.16,9.83-16,11-31.76s-3.17-35-3.22-35.17a.5.5,0,0,1,0-.32c4.41-9.33,13.4-9.88,20.34-7.27,7.22,2.7,11.33,14.07,11.89,32.88.52,17.76-9,38.57-9.06,38.78a.52.52,0,0,1-.4.29l-30.09,3.33Zm8.35-67.75c.44,2,4.33,20.13,3.21,35.29-1,13.89-8.56,27.79-10.62,31.35l28.82-3.2c1.08-2.43,9.33-21.61,8.85-38.07-.54-18.37-4.43-29.43-11.24-32C417.18,320.56,408.8,321,404.64,329.6Z" style="fill:#263238"></path><path d="M404.12,329.54a28.42,28.42,0,0,1,12.8-18.72l27.13,3.86s-12.48-.8-13.6,14.17c0,0-4.83-8.42-13.17-7.75S404.12,329.54,404.12,329.54Z" style="fill:#263238"></path><path d="M404.12,330a.51.51,0,0,1-.17,0,.5.5,0,0,1-.33-.53,29.18,29.18,0,0,1,13-19.08.49.49,0,0,1,.33-.07l27.13,3.85a.5.5,0,0,1,.42.55.51.51,0,0,1-.53.45c-.48,0-12-.57-13.06,13.7a.5.5,0,0,1-.39.45.48.48,0,0,1-.54-.24c0-.08-4.77-8.14-12.7-7.49s-12.73,8.13-12.78,8.21A.48.48,0,0,1,404.12,330Zm14.12-9.48c6.14,0,10.23,4.6,11.86,6.85,1.15-8.83,6.47-11.78,10.2-12.76L417,311.34a28.24,28.24,0,0,0-11.89,16c2-2.41,6.19-6.27,12.1-6.75C417.58,320.57,417.91,320.56,418.24,320.56Z" style="fill:#263238"></path><polygon points="413.93 384.35 415.12 390.11 441.98 390.63 441.05 384.59 413.93 384.35" style="fill:#fff"></polygon><path d="M442,391.13h0l-26.86-.52a.5.5,0,0,1-.48-.4l-1.19-5.76a.49.49,0,0,1,.1-.42.53.53,0,0,1,.39-.18h0l27.13.24a.5.5,0,0,1,.49.43l.93,6a.5.5,0,0,1-.5.58Zm-26.45-1.51,25.87.5-.77-5-26.09-.23Z" style="fill:#263238"></path><polygon points="413.93 384.35 398.05 400.34 399.78 405.72 415.12 390.11 413.93 384.35" style="fill:#fff"></polygon><path d="M399.78,406.22l-.12,0a.48.48,0,0,1-.36-.33l-1.72-5.37a.5.5,0,0,1,.12-.51l15.87-16a.51.51,0,0,1,.5-.13.5.5,0,0,1,.35.38l1.19,5.76a.53.53,0,0,1-.13.45l-15.35,15.61A.51.51,0,0,1,399.78,406.22Zm-1.16-5.74,1.38,4.3L414.58,390l-.95-4.59Z" style="fill:#263238"></path><polygon points="441.98 390.63 427.77 403.87 399.78 405.72 415.12 390.11 441.98 390.63" style="fill:#263238"></polygon><path d="M399.78,406.22a.51.51,0,0,1-.46-.3.47.47,0,0,1,.1-.55l15.34-15.61a.61.61,0,0,1,.37-.15l26.86.52a.5.5,0,0,1,.46.32.51.51,0,0,1-.13.55l-14.2,13.23a.55.55,0,0,1-.31.14l-28,1.84Zm15.55-15.6-14.28,14.51,26.51-1.75,13.18-12.27Z" style="fill:#263238"></path><path d="M476.56,319.86l27.86-5.44s10.57-1.9,20-16.48,30.33-60.19,30.33-60.19l37.37-6.66a14.93,14.93,0,0,1-1.83,3.48c-1.08,1.38-9.93,4.72-9.93,4.72l-9.6,60.6L540,309.49l1.34,3.54,13.08,8.53Z" style="fill:#263238"></path><path d="M554.42,322.06h0l-77.85-1.7a.51.51,0,0,1-.49-.46.49.49,0,0,1,.4-.53l27.86-5.44c.11,0,10.5-2.06,19.67-16.26,9.29-14.38,30.08-59.68,30.29-60.13a.52.52,0,0,1,.37-.29L592,230.6a.5.5,0,0,1,.47.17.51.51,0,0,1,.09.49,15,15,0,0,1-1.9,3.62c-1.06,1.35-8.19,4.13-9.88,4.78L571.25,300a.53.53,0,0,1-.35.4l-30.25,9.44,1.1,2.89,12.94,8.45a.48.48,0,0,1,.2.56A.49.49,0,0,1,554.42,322.06Zm-73.21-2.6L552.68,321l-11.62-7.58a.53.53,0,0,1-.19-.25l-1.34-3.54a.5.5,0,0,1,.32-.65l30.46-9.5,9.55-60.29a.49.49,0,0,1,.32-.39c3.37-1.28,9-3.64,9.71-4.57a12.29,12.29,0,0,0,1.42-2.52l-36.23,6.45c-1.65,3.59-21.27,46.13-30.25,60-9.43,14.59-19.88,16.62-20.32,16.7Z" style="fill:#263238"></path><polygon points="565.09 299.72 539.24 310.46 549.89 317.19 569.01 315.25 565.09 299.72" style="fill:#821AC2"></polygon><path d="M549.89,317.7a.5.5,0,0,1-.26-.08L539,310.88a.48.48,0,0,1-.23-.46.49.49,0,0,1,.31-.42l25.85-10.75a.51.51,0,0,1,.42,0,.49.49,0,0,1,.26.32l3.91,15.54a.49.49,0,0,1-.43.62l-19.12,1.94Zm-9.57-7.15,9.69,6.13,18.37-1.87-3.63-14.41Z" style="fill:#263238"></path><polyline points="268.76 375.23 289.76 414.37 323.93 402.85 294.61 366.16" style="fill:#821AC2"></polyline><path d="M289.76,414.87a.51.51,0,0,1-.44-.26l-21-39.14a.5.5,0,1,1,.88-.47L290,413.76,323.1,402.6l-28.88-36.13a.5.5,0,0,1,.78-.62l29.32,36.68a.51.51,0,0,1,.09.46.48.48,0,0,1-.32.33l-34.17,11.53Z" style="fill:#263238"></path><polygon points="278.92 394.16 283.35 402.43 314.9 391.55 309.5 384.79 278.92 394.16" style="fill:#fff"></polygon><path d="M283.35,402.93a.5.5,0,0,1-.44-.27l-4.43-8.26a.5.5,0,0,1,0-.43.46.46,0,0,1,.31-.28l30.59-9.37a.51.51,0,0,1,.54.16l5.39,6.75a.51.51,0,0,1,.09.46.48.48,0,0,1-.32.33L283.52,402.9A.51.51,0,0,1,283.35,402.93Zm-3.7-8.47,3.94,7.36,30.48-10.51-4.74-5.94Z" style="fill:#263238"></path></g><g id="freepik--airplane-pieces--inject-32"><path d="M145.65,380.94s-15.16-42.3-17.44-67.69-9.32-3-5.27,21.08,18.49,49.3,18.49,49.3Z" style="fill:#fff"></path><path d="M141.43,384.13h-.12a.49.49,0,0,1-.32-.24c-.14-.25-14.53-25.63-18.55-49.47-2.63-15.66-.66-30.55,1.91-32.56a1.21,1.21,0,0,1,1.26-.21c.53.23,2.14.93,3.09,11.56,2.26,25,17.26,67.15,17.42,67.57a.51.51,0,0,1-.21.59l-4.21,2.69A.45.45,0,0,1,141.43,384.13Zm-16.28-81.58a.36.36,0,0,0-.18.08c-2.07,1.63-4.15,16.1-1.54,31.61,3.69,21.91,16.22,45.15,18.18,48.69l3.43-2.2c-1.5-4.27-15.18-43.55-17.33-67.44-.86-9.56-2.23-10.61-2.49-10.73Z" style="fill:#263238"></path><path d="M154.48,372.78s-23,6.15-33,35.81c0,0,11.35,5.78,46.16.89C167.66,409.48,174.65,389.14,154.48,372.78Z" style="fill:#fff"></path><path d="M142.41,412c-15.15,0-20.81-2.75-21.13-2.92a.5.5,0,0,1-.25-.61c9.92-29.57,33.09-36.07,33.32-36.14a.52.52,0,0,1,.45.1c20.2,16.39,13.4,37.05,13.33,37.26a.51.51,0,0,1-.4.33A184.22,184.22,0,0,1,142.41,412Zm-20.28-3.64c2.27.9,14.65,4.95,45.15.71.72-2.51,5.21-20.84-12.91-35.7C151.92,374.1,131.4,381.24,122.13,408.32Z" style="fill:#263238"></path><path d="M155,401.25s-8,.89-6.3,3,8,.5,9.39-.86S155,401.25,155,401.25Z" style="fill:#263238"></path><path d="M151.72,405.78l-.57,0a3.85,3.85,0,0,1-2.87-1.19,1.29,1.29,0,0,1-.26-1.34c.71-1.7,5.87-2.36,6.9-2.47h.14c.79.14,3.38.67,3.73,1.82a1.14,1.14,0,0,1-.39,1.18C157.39,404.73,154.3,405.78,151.72,405.78Zm3.24-4c-2.66.3-5.7,1.09-6,1.85,0,0-.06.13.11.33a3,3,0,0,0,2.15.82c2.51.16,5.68-.93,6.5-1.72a.39.39,0,0,0,.12-.17C157.78,402.59,156.49,402,155,401.76Z" style="fill:#263238"></path><path d="M164.12,413.23S116.68,424.82,125.35,425s46-7.44,56.45-10.36S176,411,164.12,413.23Z" style="fill:#fff"></path><path d="M125.65,425.49h-.31c-.55,0-1.47,0-1.54-.7s-.17-1.5,20.21-6.93c9.87-2.63,19.89-5.08,20-5.1h0c7.08-1.31,21.08-2.19,21.6.08.2.84-.84,1.48-3.7,2.28C172.13,417.83,135.07,425.49,125.65,425.49Zm-.22-1c8.5.14,45.14-7.25,56.23-10.34a9.48,9.48,0,0,0,2.9-1.12c-1.43-.8-11.21-1-20.34.7C150.75,417,129.62,422.53,125.43,424.48Z" style="fill:#263238"></path><polygon points="196.03 412.02 174.64 423.07 220.03 427.76 230.91 421.73 196.03 412.02" style="fill:#821AC2"></polygon><path d="M220,428.26H220l-45.39-4.69a.51.51,0,0,1-.44-.41.52.52,0,0,1,.26-.54l21.39-11a.53.53,0,0,1,.37,0l34.87,9.7a.52.52,0,0,1,.37.43.5.5,0,0,1-.26.49l-10.88,6A.48.48,0,0,1,220,428.26Zm-43.67-5.52,43.57,4.51,9.67-5.37-33.51-9.32Z" style="fill:#263238"></path><polygon points="333.93 410.96 291 422.63 318.86 436.01 358.91 429.84 333.93 410.96" style="fill:#821AC2"></polygon><path d="M318.86,436.51a.38.38,0,0,1-.21-.05l-27.87-13.38a.51.51,0,0,1-.28-.5.49.49,0,0,1,.37-.43l42.93-11.67a.5.5,0,0,1,.43.08l25,18.88a.51.51,0,0,1-.23.9l-40,6.17Zm-26.43-13.75,26.51,12.73,38.72-6-23.84-18Z" style="fill:#263238"></path><polygon points="365.13 413.3 358.72 421.51 386.34 429.33 411.98 414.2 365.13 413.3" style="fill:#821AC2"></polygon><path d="M386.34,429.83l-.13,0L358.58,422a.5.5,0,0,1-.33-.33.45.45,0,0,1,.08-.46l6.4-8.21a.57.57,0,0,1,.41-.19l46.85.9a.5.5,0,0,1,.47.38.48.48,0,0,1-.23.55L386.6,429.76A.48.48,0,0,1,386.34,429.83Zm-26.77-8.6,26.7,7.56,23.94-14.12-44.84-.87Z" style="fill:#263238"></path><polygon points="386.34 429.33 413.15 425.1 404.12 418.83 386.34 429.33" style="fill:#263238"></polygon><path d="M386.34,429.83a.5.5,0,0,1-.25-.93l17.78-10.5a.48.48,0,0,1,.54,0l9,6.27a.49.49,0,0,1,.2.52.51.51,0,0,1-.41.39l-26.81,4.22Zm17.76-10.41-15.25,9,23-3.63Z" style="fill:#263238"></path></g><g id="freepik--Wing--inject-32"><path d="M553,375.43s-4.24-4.16,0-11.05,7.35-7.55,7.35-7.55-5.23,9.51.53,10.1,4.23-7.85,7.23-13.8,12.88-7.2,12.88-7.2-10.82,12.53-6.11,17.43,14.46-1.64,15.89-13.63-.16-16.83-.16-16.83,3.44,9,8.15,1.36-.11-19.23-.11-19.23,7.53,8.32,8.93,23-9.23,17.37-6,24.4,10.37-1.72,10.37-1.72-9.57,9.91-3.89,14.83,13.73-1.66,13.73-1.66-12.21,9.62.42,15.15c0,0-4,6.41,2.61,14.23Z" style="fill:#fff"></path><path d="M624.78,403.76a.39.39,0,0,1-.18,0L552.8,375.9a.45.45,0,0,1-.17-.11s-4.48-4.53-.1-11.67,7.54-7.75,7.68-7.78a.48.48,0,0,1,.5.19.5.5,0,0,1,0,.54c-.87,1.59-2.89,6.16-1.8,8.24a2.26,2.26,0,0,0,1.94,1.13c3.11.31,3.77-2.19,4.68-6.64a27.29,27.29,0,0,1,2.06-6.89c3.08-6.12,12.84-7.42,13.26-7.47a.48.48,0,0,1,.5.26.5.5,0,0,1-.06.56c-.11.12-10.47,12.24-6.12,16.75a5,5,0,0,0,5.52,1.13c3.9-1.31,8.54-6.39,9.5-14.47,1.4-11.7-.12-16.57-.13-16.61a.5.5,0,0,1,.31-.63.5.5,0,0,1,.63.29c.42,1.08,1.89,3.92,3.69,4.09,1.13.1,2.34-.84,3.56-2.81,4.52-7.29-.1-18.66-.14-18.78a.5.5,0,0,1,.83-.52c.08.08,7.66,8.6,9.06,23.29.77,8.11-2,12.59-4.26,16.19-1.83,2.94-3.16,5.06-1.79,8,.68,1.47,1.57,2.28,2.66,2.42,2.21.29,4.84-2.09,6.11-3.4.44-.51.73-.82.79-.88a.5.5,0,0,1,.74.67c0,.05-.31.38-.76.85-1.55,1.81-5,6.25-4.81,9.93a4.48,4.48,0,0,0,1.62,3.35c5.13,4.44,12.54-1.24,13.06-1.65l0,0a.5.5,0,0,1,.7.08.51.51,0,0,1-.08.7h0c-.28.22-5.61,4.58-5.06,8.82.28,2.19,2.09,4,5.39,5.47a.49.49,0,0,1,.27.31.46.46,0,0,1,0,.41c-.15.25-3.68,6.22,2.57,13.64a.51.51,0,0,1-.39.83ZM553.27,375l70,27.13c-4.3-6.13-2.54-11.29-1.81-12.87-3.33-1.57-5.18-3.6-5.49-6s1.06-5,2.52-6.8c-3,1.41-7.34,2.51-10.83-.52a5.53,5.53,0,0,1-2-4.05c-.1-2.45,1.15-5.11,2.52-7.25a6,6,0,0,1-3.71,1c-1.46-.19-2.62-1.2-3.44-3-1.6-3.47,0-6,1.84-9,2.16-3.47,4.85-7.79,4.11-15.57a44.49,44.49,0,0,0-7-20.23c1.14,4,2.42,11.27-.94,16.67-1.44,2.33-3,3.44-4.51,3.28a4.62,4.62,0,0,1-3-2.05,61.87,61.87,0,0,1-.36,14c-1,8.51-6,13.9-10.18,15.3a6,6,0,0,1-6.57-1.38c-4.18-4.36,2.69-13.85,5.22-17-2.73.57-9,2.32-11.18,6.7a26.6,26.6,0,0,0-2,6.64c-.83,4-1.61,7.87-5.76,7.43a3.2,3.2,0,0,1-2.72-1.65c-1.14-2.16.24-5.87,1.14-7.85-1.24.8-3.34,2.64-5.83,6.71C549.68,370.69,552.74,374.44,553.27,375Z" style="fill:#263238"></path><path d="M613.57,328.62l-2-2.08a1.09,1.09,0,0,1,0-1.54h0a1.1,1.1,0,0,1,1.55,0l2,2.08a1.09,1.09,0,0,1,0,1.54h0A1.09,1.09,0,0,1,613.57,328.62Z" style="fill:#fff"></path><path d="M614.35,329.45h0a1.54,1.54,0,0,1-1.12-.48h0l-2-2.08a1.59,1.59,0,0,1,2.28-2.22l2,2.08a1.61,1.61,0,0,1,.45,1.14,1.59,1.59,0,0,1-1.59,1.56Zm-.42-1.18a.59.59,0,0,0,.83,0,.6.6,0,0,0,.18-.42.59.59,0,0,0-.17-.42l-2-2.08a.59.59,0,0,0-.85.82Z" style="fill:#263238"></path><path d="M556.67,349.34l-2-2.08a1.09,1.09,0,0,1,0-1.54h0a1.1,1.1,0,0,1,1.55,0l2,2.08a1.1,1.1,0,0,1,0,1.55h0A1.08,1.08,0,0,1,556.67,349.34Z" style="fill:#fff"></path><path d="M557.45,350.17h0a1.52,1.52,0,0,1-1.12-.48h0l-2-2.08a1.65,1.65,0,0,1-.45-1.13,1.6,1.6,0,0,1,2.73-1.09l2,2.09a1.61,1.61,0,0,1,.45,1.13,1.59,1.59,0,0,1-1.59,1.56ZM557,349a.57.57,0,0,0,.41.17.65.65,0,0,0,.42-.16.6.6,0,0,0,.18-.42.61.61,0,0,0-.17-.42l-2-2.08a.6.6,0,0,0-.42-.18.6.6,0,0,0-.6.58.59.59,0,0,0,.17.42Z" style="fill:#263238"></path><path d="M605.87,316l-2.86.49a1.09,1.09,0,0,1-1.26-.9h0a1.09,1.09,0,0,1,.89-1.25l2.86-.49a1.09,1.09,0,0,1,1.26.89h0A1.1,1.1,0,0,1,605.87,316Z" style="fill:#fff"></path><path d="M602.82,317a1.59,1.59,0,0,1-.26-3.16l2.86-.49a1.6,1.6,0,0,1,1.84,1.31,1.61,1.61,0,0,1-1.31,1.83l-2.86.49Zm2.87-2.67h-.1l-2.87.49a.59.59,0,0,0-.48.68.58.58,0,0,0,.68.48l2.87-.49h0a.59.59,0,0,0,.48-.68A.6.6,0,0,0,605.69,314.36Z" style="fill:#263238"></path><path d="M623.42,357.36l-2.87.49a1.1,1.1,0,0,1-1.26-.89h0a1.1,1.1,0,0,1,.89-1.26l2.87-.48a1.08,1.08,0,0,1,1.26.89h0A1.09,1.09,0,0,1,623.42,357.36Z" style="fill:#fff"></path><path d="M620.36,358.37A1.58,1.58,0,0,1,618.8,357a1.59,1.59,0,0,1,1.3-1.83l2.86-.49a1.61,1.61,0,0,1,1.19.27,1.57,1.57,0,0,1,.65,1,1.6,1.6,0,0,1-1.3,1.84l-2.87.49Zm2.87-2.67h-.1l-2.86.49a.54.54,0,0,0-.38.24.57.57,0,0,0-.1.44.59.59,0,0,0,.68.48l2.86-.49h0a.58.58,0,0,0,.48-.68.56.56,0,0,0-.24-.38A.6.6,0,0,0,623.23,355.7Z" style="fill:#263238"></path><path d="M605.71,351.52l-2.87.49a1.09,1.09,0,0,1-1.25-.89h0a1.08,1.08,0,0,1,.89-1.26l2.86-.49a1.09,1.09,0,0,1,1.26.9h0A1.09,1.09,0,0,1,605.71,351.52Z" style="fill:#fff"></path><path d="M602.66,352.53a1.61,1.61,0,0,1-1.57-1.33,1.6,1.6,0,0,1,.27-1.18,1.57,1.57,0,0,1,1-.65l2.87-.49a1.59,1.59,0,0,1,.53,3.14h0l-2.86.48Zm2.86-2.67h-.09l-2.87.49a.59.59,0,0,0-.48.68.6.6,0,0,0,.24.38.62.62,0,0,0,.44.1l2.86-.49a.59.59,0,0,0-.1-1.17Zm.19,1.66h0Z" style="fill:#263238"></path><path d="M606.57,291.43l-1.08,2.7a1.09,1.09,0,0,1-1.42.6h0a1.08,1.08,0,0,1-.61-1.41l1.09-2.7A1.08,1.08,0,0,1,606,290h0A1.08,1.08,0,0,1,606.57,291.43Z" style="fill:#fff"></path><path d="M604.48,295.31a1.56,1.56,0,0,1-.6-.11,1.6,1.6,0,0,1-.88-2.07l1.09-2.7a1.58,1.58,0,0,1,2.06-.88,1.55,1.55,0,0,1,.87.85,1.57,1.57,0,0,1,0,1.22l-1.08,2.7a1.61,1.61,0,0,1-.85.87A1.67,1.67,0,0,1,604.48,295.31Zm1.08-4.87a.59.59,0,0,0-.23,0,.61.61,0,0,0-.32.33l-1.08,2.69a.6.6,0,0,0,.78.77.63.63,0,0,0,.31-.33l1.09-2.69h0a.58.58,0,0,0,0-.45.56.56,0,0,0-.32-.32A.57.57,0,0,0,605.56,290.44Z" style="fill:#263238"></path><path d="M606,362.66l-1.08,2.7a1.09,1.09,0,0,1-1.42.6h0a1.09,1.09,0,0,1-.61-1.41l1.09-2.7a1.09,1.09,0,0,1,1.41-.61h0A1.1,1.1,0,0,1,606,362.66Z" style="fill:#fff"></path><path d="M603.88,366.54a1.73,1.73,0,0,1-.6-.11,1.59,1.59,0,0,1-.88-2.07l1.08-2.7a1.59,1.59,0,0,1,.86-.87,1.54,1.54,0,0,1,1.21,0,1.59,1.59,0,0,1,.88,2.07l-1.08,2.69a1.55,1.55,0,0,1-.85.87A1.5,1.5,0,0,1,603.88,366.54Zm1.08-4.87a.59.59,0,0,0-.23,0,.58.58,0,0,0-.32.33l-1.08,2.69a.59.59,0,0,0,.32.77.57.57,0,0,0,.46,0,.57.57,0,0,0,.31-.32l1.09-2.69h0a.59.59,0,0,0-.33-.77A.57.57,0,0,0,605,361.67Z" style="fill:#263238"></path><path d="M581.57,340.19l-1.08,2.7a1.1,1.1,0,0,1-1.42.61h0a1.1,1.1,0,0,1-.61-1.42l1.09-2.7a1.07,1.07,0,0,1,1.41-.6h0A1.09,1.09,0,0,1,581.57,340.19Z" style="fill:#fff"></path><path d="M579.47,344.08a1.52,1.52,0,0,1-.59-.12,1.61,1.61,0,0,1-.87-.85,1.57,1.57,0,0,1,0-1.22l1.08-2.69a1.55,1.55,0,0,1,.85-.87,1.61,1.61,0,0,1,1.22,0,1.56,1.56,0,0,1,.87.86,1.54,1.54,0,0,1,0,1.21l-1.08,2.7a1.61,1.61,0,0,1-.85.87A1.69,1.69,0,0,1,579.47,344.08Zm1.09-4.88a.46.46,0,0,0-.23.05.56.56,0,0,0-.32.32l-1.08,2.69a.59.59,0,1,0,1.09.45l1.09-2.7h0a.63.63,0,0,0,0-.45.59.59,0,0,0-.32-.32A.57.57,0,0,0,580.56,339.2Z" style="fill:#263238"></path><path d="M581.52,365.58l-1.08,2.7a1.09,1.09,0,0,1-1.42.6h0a1.09,1.09,0,0,1-.61-1.41l1.09-2.7a1.08,1.08,0,0,1,1.42-.6h0A1.07,1.07,0,0,1,581.52,365.58Z" style="fill:#fff"></path><path d="M579.43,369.46a1.81,1.81,0,0,1-.6-.11,1.59,1.59,0,0,1-.88-2.07l1.09-2.7a1.58,1.58,0,0,1,2.06-.88,1.55,1.55,0,0,1,.87.85,1.61,1.61,0,0,1,0,1.22h0l-1.09,2.7a1.56,1.56,0,0,1-.85.86A1.5,1.5,0,0,1,579.43,369.46Zm1.08-4.87a.59.59,0,0,0-.23,0,.61.61,0,0,0-.32.33l-1.08,2.69a.58.58,0,0,0,0,.45.61.61,0,0,0,.33.32.58.58,0,0,0,.45,0,.63.63,0,0,0,.31-.33l1.09-2.69a.58.58,0,0,0,0-.45.56.56,0,0,0-.32-.32A.57.57,0,0,0,580.51,364.59Zm1,1h0Z" style="fill:#263238"></path><polygon points="491.84 349.61 465.49 406.03 644.04 438.78 656.65 413.76 491.84 349.61" style="fill:#821AC2"></polygon><path d="M644.05,439.28H644L465.4,406.52a.52.52,0,0,1-.35-.26.46.46,0,0,1,0-.44l26.35-56.42a.49.49,0,0,1,.63-.25L656.84,413.3a.48.48,0,0,1,.28.28.53.53,0,0,1,0,.41l-12.61,25A.5.5,0,0,1,644.05,439.28ZM466.22,405.65l177.55,32.57L656,414,492.1,350.25Z" style="fill:#263238"></path><polygon points="584.11 385.75 586.2 381.75 654.41 407.66 653.23 412.75 584.11 385.75" style="fill:#821AC2"></polygon><path d="M653.22,413.25l-.18,0-69.12-27a.5.5,0,0,1-.28-.29.53.53,0,0,1,0-.41l2.1-4a.51.51,0,0,1,.62-.24l68.21,25.91a.5.5,0,0,1,.31.58l-1.19,5.1a.49.49,0,0,1-.25.33A.69.69,0,0,1,653.22,413.25Zm-68.41-27.76,68.06,26.59,1-4.11-67.39-25.59Z" style="fill:#263238"></path></g></svg>
